<svg xmlns="http://www.w3.org/2000/svg" xmlns:xlink="http://www.w3.org/1999/xlink" width="40" height="40" viewBox="0 0 40 40">
  <defs>
    <linearGradient id="linear-gradient" x1="0.135" y1="0.118" x2="0.805" y2="0.886" gradientUnits="objectBoundingBox">
      <stop offset="0" stop-color="#f5f5f5"/>
      <stop offset="1" stop-color="#d8d8d8"/>
    </linearGradient>
    <linearGradient id="linear-gradient-2" x1="-0.012" y1="0.5" x2="0.989" y2="0.5" gradientUnits="objectBoundingBox">
      <stop offset="0" stop-color="#bf27f8"/>
      <stop offset="1" stop-color="#6e25ee"/>
    </linearGradient>
    <linearGradient id="linear-gradient-3" x1="-0.138" y1="0.274" x2="0.598" y2="0.692" xlink:href="#linear-gradient-2"/>
    <linearGradient id="linear-gradient-4" x1="0" y1="0.5" x2="1" y2="0.5" xlink:href="#linear-gradient-2"/>
    <linearGradient id="linear-gradient-5" x1="-2.884" y1="0.777" x2="1.294" y2="0.425" xlink:href="#linear-gradient-2"/>
    <linearGradient id="linear-gradient-6" x1="0.167" y1="0.391" x2="0.862" y2="0.669" xlink:href="#linear-gradient-2"/>
    <linearGradient id="linear-gradient-7" x1="-0.221" y1="-0.032" x2="1.052" y2="0.752" xlink:href="#linear-gradient-2"/>
    <linearGradient id="linear-gradient-9" x1="-0.014" y1="0.5" x2="1.731" y2="0.5" xlink:href="#linear-gradient-2"/>
    <linearGradient id="linear-gradient-10" x1="-0.014" y1="0.5" x2="1.731" y2="0.5" gradientUnits="objectBoundingBox">
      <stop offset="0" stop-color="#3d0374"/>
      <stop offset="1" stop-color="#380179"/>
    </linearGradient>
    <linearGradient id="linear-gradient-11" x1="0" y1="0.5" x2="1" y2="0.5" xlink:href="#linear-gradient-2"/>
    <linearGradient id="linear-gradient-12" x1="1.417" y1="0.478" x2="0.432" y2="0.5" xlink:href="#linear-gradient-2"/>
    <linearGradient id="linear-gradient-13" x1="-0.199" y1="0.748" x2="0.744" y2="0.396" xlink:href="#linear-gradient-2"/>
    <linearGradient id="linear-gradient-14" x1="-1.811" y1="-0.101" x2="0.835" y2="0.594" xlink:href="#linear-gradient-2"/>
    <linearGradient id="linear-gradient-15" x1="0.486" y1="1.073" x2="0.508" y2="0.134" gradientUnits="objectBoundingBox">
      <stop offset="0" stop-color="#3d0374" stop-opacity="0.4"/>
      <stop offset="1" stop-color="#380179" stop-opacity="0"/>
    </linearGradient>
    <linearGradient id="linear-gradient-16" x1="0.483" y1="1.045" x2="0.511" y2="0.153" xlink:href="#linear-gradient-10"/>
    <linearGradient id="linear-gradient-17" x1="0.473" y1="1.066" x2="0.513" y2="0.142" xlink:href="#linear-gradient-10"/>
    <linearGradient id="linear-gradient-18" x1="-0.04" y1="0.169" x2="0.96" y2="0.669" xlink:href="#linear-gradient-15"/>
    <linearGradient id="linear-gradient-19" x1="0.098" y1="0.614" x2="0.995" y2="0.46" xlink:href="#linear-gradient-15"/>
    <linearGradient id="linear-gradient-20" x1="1.095" y1="0.215" x2="0.121" y2="0.781" xlink:href="#linear-gradient-15"/>
    <linearGradient id="linear-gradient-21" x1="1.025" y1="0.214" x2="0.255" y2="0.706" xlink:href="#linear-gradient-15"/>
    <radialGradient id="radial-gradient" cx="-0.16" cy="1.015" r="0.844" gradientTransform="translate(-0.017) scale(1.034 1)" gradientUnits="objectBoundingBox">
      <stop offset="0" stop-color="#fff"/>
      <stop offset="1" stop-color="#fff" stop-opacity="0"/>
    </radialGradient>
    <radialGradient id="radial-gradient-2" cx="1.237" cy="0.482" r="0.804" gradientTransform="translate(-0.111) scale(1.222 1)" gradientUnits="objectBoundingBox">
      <stop offset="0" stop-color="#fff" stop-opacity="0.898"/>
      <stop offset="1" stop-color="#fff" stop-opacity="0"/>
    </radialGradient>
    <radialGradient id="radial-gradient-3" cx="0.646" cy="-0.386" r="1.479" gradientTransform="translate(-0.003) scale(1.006 1)" xlink:href="#radial-gradient-2"/>
    <radialGradient id="radial-gradient-4" cx="0.909" cy="0.073" r="1.043" gradientTransform="translate(-0.029) scale(1.058 1)" xlink:href="#radial-gradient-2"/>
    <radialGradient id="radial-gradient-5" cx="0.481" cy="-0.018" r="1.406" gradientTransform="translate(-0.709) scale(2.418 1)" xlink:href="#radial-gradient-2"/>
    <linearGradient id="linear-gradient-22" x1="0" y1="0.5" x2="1" y2="0.5" xlink:href="#linear-gradient-10"/>
    <linearGradient id="linear-gradient-23" x1="0.725" y1="0.584" x2="0.334" y2="0.466" xlink:href="#linear-gradient-15"/>
    <radialGradient id="radial-gradient-6" cx="0.034" cy="0.153" r="0.578" gradientTransform="translate(-0.302) scale(1.604 1)" xlink:href="#radial-gradient-2"/>
    <radialGradient id="radial-gradient-7" cx="-0.288" cy="0.627" r="0.74" gradientTransform="translate(-0.614) scale(2.228 1)" xlink:href="#radial-gradient-2"/>
    <radialGradient id="radial-gradient-8" cx="0.402" cy="-0.203" r="1.43" gradientTransform="translate(0.271) scale(0.458 1)" xlink:href="#radial-gradient-2"/>
    <radialGradient id="radial-gradient-9" cx="0.47" cy="-0.087" r="0.776" gradientTransform="translate(0.214) scale(0.573 1)" xlink:href="#radial-gradient-2"/>
    <radialGradient id="radial-gradient-10" cx="0.711" cy="0.298" r="0.595" gradientTransform="translate(-0.016) scale(1.031 1)" xlink:href="#radial-gradient-2"/>
    <linearGradient id="linear-gradient-24" x1="0.727" y1="0.153" x2="0.234" y2="0.955" xlink:href="#linear-gradient-2"/>
    <linearGradient id="linear-gradient-25" x1="0.381" y1="0.642" x2="0.908" y2="0.001" xlink:href="#linear-gradient-15"/>
  </defs>
  <g id="Group_828" data-name="Group 828" transform="translate(-21 -34)">
    <path id="vectorMask" d="M41,34h0A19.982,19.982,0,0,1,61,54h0A19.982,19.982,0,0,1,41,74h0A19.982,19.982,0,0,1,21,54h0A19.982,19.982,0,0,1,41,34Z" transform="translate(0 0)" fill="url(#linear-gradient)"/>
    <g id="Group_827" data-name="Group 827" transform="translate(-91 -153.363)">
      <path id="Path_20" data-name="Path 20" d="M635.923,767.587v.057c0,.012,0,.024,0,.036C635.922,767.649,635.923,767.619,635.923,767.587Z" transform="translate(-496.069 -553.427)" fill="url(#linear-gradient-2)"/>
      <path id="Path_21" data-name="Path 21" d="M306.181,615.433v0a0,0,0,0,1,0,0s0,0,0,0v.028l0,.022a4.464,4.464,0,0,1-.588,2.1,4.356,4.356,0,0,1-.554.767,4.2,4.2,0,0,1-.356.356c-.021.02-.043.04-.065.058a4.481,4.481,0,0,1-2.818,1.085h-.2a3.165,3.165,0,0,1-2.93-2.21l-.072.439c-.035.209-.065.419-.081.631a1.126,1.126,0,0,1-.607,1.067.938.938,0,0,1-.382.074H293.36a.37.37,0,0,1-.261-.635h0a2.539,2.539,0,0,1,1.265-.476s1.929-.355,1.929-1.616l-.033-.54-.019-.315-.072-1.177c.095-.084.187-.169.277-.255a9.549,9.549,0,0,0,1.089-1.244h0q.285-.388.524-.784c.17-.28.324-.562.463-.841.036-.072.07-.143.1-.214s.067-.142.1-.213.063-.141.091-.211.061-.14.087-.209.053-.128.077-.191c.082-.211.156-.418.222-.618.018-.053.035-.106.051-.158s.036-.112.053-.168c.034-.111.064-.219.095-.325l.042-.157c.006-.024.013-.048.019-.072.019-.07.036-.139.052-.206,0-.008,0-.016.006-.023l.059.023.081.033.085.036c.059.025.122.054.188.085l.071.033c.125.06.263.129.416.21.107.057.221.12.343.188l.1.057.1.06q.263.153.57.343l.063.04.143.09c.269.171.56.363.879.579l.135.092.034.019a.032.032,0,0,1,.011.007l.015.008.065.04.058.036c.013.008.027.017.041.028s.052.033.081.052c.058.038.121.081.192.129l.054.036c.162.113.352.252.555.413.023.017.045.036.068.054l.069.056.069.057c.023.019.047.039.07.06.046.038.091.078.137.118s.1.087.147.133c.024.021.048.044.073.066.047.044.1.09.143.137.119.116.238.238.352.366.023.025.046.051.068.077s.044.048.063.073l0,0,0,0c.019.021.037.042.053.064s.022.025.031.037.034.04.049.061.044.053.064.081l.062.082c.021.027.041.056.061.084l.06.085c.059.085.115.172.166.261.019.03.036.059.053.089l.05.09c.017.03.032.06.048.091s.031.061.044.092.032.068.047.1c.026.058.051.117.074.177h0c.021.057.041.115.06.173.012.04.024.079.034.119s.017.06.024.09a.025.025,0,0,1,0,.006c.006.022.01.043.015.065s.011.045.015.068,0,.021.006.031.007.04.01.059.007.047.011.07.007.057.01.085,0,.068.008.1Z" transform="translate(-166.329 -401.148)" fill="url(#linear-gradient-3)"/>
      <path id="Path_22" data-name="Path 22" d="M543.524,655.5l-.034-.019-.135-.092C543.411,655.424,543.467,655.461,543.524,655.5Z" transform="translate(-407.064 -445.544)" fill="url(#linear-gradient-4)"/>
      <path id="Path_23" data-name="Path 23" d="M374.376,605.247c0,.007,0,.015-.006.023-.022.09-.045.183-.07.278-.013.051-.027.1-.042.157-.03.106-.061.214-.095.325-.017.056-.034.111-.053.168s-.033.1-.051.158c-.066.2-.14.407-.222.618-.024.063-.049.127-.076.191s-.057.139-.087.209-.061.141-.092.211-.065.142-.1.213-.068.142-.1.214a10.159,10.159,0,0,1-2.352,3.124l-.189-3.1s0-.038,0-.106q0-.025,0-.056t0-.073c0-.016,0-.033,0-.051a.122.122,0,0,1,0-.016c0-.026,0-.053.009-.082l0-.024a.015.015,0,0,0,0-.006c0-.023.006-.048.01-.073s.008-.056.013-.085.01-.053.015-.081c0,0,0-.007,0-.01a.218.218,0,0,1,.006-.031c0-.018.007-.036.011-.054s.013-.057.02-.085.015-.058.023-.088.016-.06.026-.09.019-.061.029-.092.02-.06.031-.09l0,0q.022-.059.046-.119c0-.014.011-.027.017-.04l.018-.04c.015-.035.032-.069.049-.1s.02-.041.031-.061a.158.158,0,0,1,.011-.02c.016-.03.032-.06.05-.09s.035-.059.054-.089.038-.058.058-.087.038-.054.057-.08.046-.06.07-.089.063-.074.1-.11.041-.043.062-.064.049-.049.075-.072l.006,0h0a.454.454,0,0,1,.037-.032l.044-.038c.018-.015.035-.029.053-.043s.041-.032.063-.048l.049-.035.059-.04q.034-.023.07-.044l.054-.031.056-.031c.038-.02.077-.04.116-.057l.06-.028c.041-.018.082-.035.125-.051l.065-.023h0l.015-.006.009,0,.009,0,.031-.01.04-.013c.047-.015.1-.028.145-.04l.087-.02c.034-.008.068-.015.1-.022l.057-.01.065-.01c.068-.01.138-.019.21-.026a3.91,3.91,0,0,1,.411-.019A1.712,1.712,0,0,1,374.376,605.247Z" transform="translate(-241.186 -397.182)" fill="url(#linear-gradient-5)"/>
      <path id="Path_24" data-name="Path 24" d="M133.47,495.995a10.855,10.855,0,0,1-.28,1.648c0,.007,0,.015-.006.023s-.01.042-.016.064c-.017.069-.035.141-.054.214l-.042.157c-.031.106-.061.214-.095.325-.017.056-.034.111-.053.168s-.033.105-.051.158c-.066.2-.141.407-.222.618-.024.063-.049.127-.077.192s-.057.139-.087.209-.061.141-.091.211-.065.142-.1.213-.068.142-.1.214a10.165,10.165,0,0,1-2.353,3.124,8.686,8.686,0,0,1-.844.662c-.076.053-.153.1-.231.154a6.492,6.492,0,0,0-.538.39l-3.48,2.82a3.286,3.286,0,0,1-2.071.734h-2.171a.522.522,0,0,1-.45-.242c-.084-.141-.1-.326.152-.516a.625.625,0,0,1,.061-.042l.011-.006a1,1,0,0,1,.283-.112l.072-.017.044-.011c.075-.019.165-.042.267-.07a12.265,12.265,0,0,0,2.391-.921,5.311,5.311,0,0,0,1.879-1.519,20.259,20.259,0,0,0,3.176-5.563h0a5.913,5.913,0,0,0,.175-.754h0c.007-.042.013-.084.019-.126a3.258,3.258,0,0,0,.027-.331c0-.144,0-.288-.009-.432s-.019-.31-.021-.524a8.566,8.566,0,0,1,.092-1.387c.006-.037.012-.074.019-.112s.013-.074.02-.112c.014-.076.031-.153.049-.229.006-.03.013-.059.022-.088s.022-.085.033-.127c.02-.074.044-.146.068-.217s.053-.15.083-.223c.01-.027.023-.055.035-.082,0-.006,0-.013.008-.019.012-.027.024-.053.037-.079a2.645,2.645,0,0,1,.158-.291.707.707,0,0,1,.052-.08c.017-.026.035-.052.054-.078a2.085,2.085,0,0,1,.162-.2l.019-.02.056-.057.013-.013.065-.06.074-.062c.05-.04.1-.076.156-.111l.077-.047c.027-.015.055-.031.085-.045s.051-.025.077-.036l.033-.015,0,0,.066-.027c.032-.013.065-.023.1-.035l.006,0,.017,0c.013,0,.027-.008.041-.012l.014,0,.01,0,.044-.011.052-.011a1.951,1.951,0,0,1,.471-.031c.041,0,.082,0,.124.008.075.009.162.022.257.04l.059.012q.067.013.136.031h0l.116.031.078.023,0,0,.007,0,.043.014a2.933,2.933,0,0,1,.416.173A2.387,2.387,0,0,1,133.47,495.995Z" transform="translate(0 -289.578)" fill="url(#linear-gradient-6)"/>
      <path id="Path_25" data-name="Path 25" d="M471.557,453.935h.006" transform="translate(-338.029 -251.845)" fill="#fff"/>
      <path id="Path_26" data-name="Path 26" d="M237.806,362.879v4.9c0,.032,0,.062,0,.094a.209.209,0,0,1,0,.032q0-.057,0-.114c0-.034,0-.069-.008-.1s-.006-.057-.01-.085-.007-.047-.011-.07-.006-.039-.01-.059,0-.02-.006-.031-.009-.045-.015-.068-.009-.043-.015-.065a.025.025,0,0,0,0-.006c-.006-.03-.015-.06-.023-.09s-.022-.079-.035-.119c-.018-.058-.038-.116-.06-.173h0c-.023-.06-.047-.119-.074-.177-.015-.034-.03-.068-.047-.1s-.029-.061-.044-.092-.031-.061-.048-.091-.032-.061-.05-.091-.034-.059-.052-.089c-.053-.089-.108-.176-.167-.261l-.06-.085c-.019-.028-.04-.057-.061-.084l-.062-.082c-.02-.027-.041-.054-.064-.081s-.031-.04-.048-.061a.417.417,0,0,0-.031-.037c-.016-.022-.035-.043-.053-.064l0,0,0,0c-.019-.025-.041-.049-.063-.073s-.044-.052-.068-.077c-.076-.085-.154-.167-.232-.247l-.12-.119c-.048-.048-.1-.093-.143-.137l-.072-.066c-.049-.046-.1-.091-.148-.133s-.091-.08-.137-.118c-.023-.021-.047-.04-.07-.06l-.07-.057-.069-.056c-.023-.019-.045-.037-.068-.054-.2-.161-.393-.3-.555-.413l-.053-.036c-.07-.048-.134-.091-.192-.129l-.081-.052-.042-.027-.058-.036-.065-.04-.014-.008a.044.044,0,0,0-.011-.007c-.057-.036-.113-.074-.169-.112-.318-.216-.61-.408-.879-.579l-.143-.09-.063-.04q-.307-.19-.571-.343l-.1-.06-.1-.057c-.295-.166-.546-.3-.76-.4l-.07-.033c-.066-.031-.129-.06-.188-.085l-.085-.036-.081-.033-.059-.023a10.853,10.853,0,0,0,.28-1.648,3.778,3.778,0,0,0-.007-.537,2.274,2.274,0,0,0-1.269-1.941,2.931,2.931,0,0,0-.416-.173l-.054-.018-.079-.023c-.04-.011-.078-.022-.116-.031l-.048-.012-.088-.019-.059-.012c-.056-.01-.11-.019-.159-.027l-.1-.013a2.627,2.627,0,0,0-.263-.019h-.039c-.029,0-.058,0-.087.009a1.83,1.83,0,0,0-.206.034l-.052.011-.044.01-.009,0-.015,0-.041.012-.017,0-.006,0c-.034.011-.066.022-.1.035s-.044.017-.066.027c0,0,0,0,0,0l-.034.015c-.027.011-.052.023-.077.036s-.057.029-.085.045-.052.031-.077.047c-.053.035-.106.071-.156.111-.025.02-.049.04-.074.062s-.044.039-.065.06l-.013.013c-.019.018-.038.037-.056.057l-.019.02a2.006,2.006,0,0,0-.162.2c-.019.026-.037.052-.054.078s-.036.052-.052.08a2.653,2.653,0,0,0-.158.291c-.014.026-.026.053-.037.079a.19.19,0,0,0-.008.019c-.012.027-.024.054-.035.082-.03.073-.057.148-.083.223,0,.01-.007.02-.011.031-.014.041-.027.084-.039.126-.006.02-.012.04-.018.061-.012.042-.023.084-.034.127s-.015.058-.022.088c-.019.076-.035.153-.049.229-.007.037-.014.074-.02.111s-.013.074-.019.112c-.14-.39-.574-1.038-1.914-1.049a4.69,4.69,0,0,1-.738-.058,3.116,3.116,0,0,1-1.687-.705.821.821,0,0,1-.094-.127l.012,0h1.5a.747.747,0,0,0,.254-.042.292.292,0,0,0,.034-.013.514.514,0,0,0,.187-.131.345.345,0,0,0,.033-.044h0a.351.351,0,0,0,.037-.076.209.209,0,0,0,.007-.021.1.1,0,0,0,0-.015.412.412,0,0,0,0-.165.32.32,0,0,0-.01-.053c0-.019-.01-.037-.016-.057s-.006-.018-.009-.027-.006-.015-.009-.023l-.018-.042c-.006-.014-.013-.027-.02-.04a.385.385,0,0,0-.021-.036l-.015-.024c-.008-.012-.016-.024-.025-.036l0,0c-.01-.014-.021-.027-.032-.041a.241.241,0,0,0-.031-.034.143.143,0,0,0-.015-.017c-.018-.019-.036-.036-.056-.053a1.684,1.684,0,0,1-.177-.167l-.023-.026c-.013-.015-.024-.029-.036-.044l-.027-.036-.008-.01,0,0c-.008-.011-.016-.023-.023-.035s-.014-.022-.02-.033a.338.338,0,0,1-.019-.034.7.7,0,0,1-.07-.191.37.37,0,0,1-.008-.053.406.406,0,0,1,0-.055.52.52,0,0,1,.021-.146c.006-.019.013-.04.021-.06l.009-.019a.109.109,0,0,1,.01-.02c0-.006.006-.014.011-.02l.015-.027,0,0c.012-.019.025-.038.04-.057,0,0,0,0,0,0l.025-.031c.017-.02.036-.041.057-.061l.032-.031.047-.041.049-.039.057-.04.058-.039,0,0,.065-.04.048-.027.019-.01.04-.021.041-.021.082-.04.007,0a1.3,1.3,0,0,0,.542-.452,1.118,1.118,0,0,0,.085-.153.31.31,0,0,0,.015-.034l.012-.031c0-.008.006-.016.008-.025s.01-.032.013-.047a.334.334,0,0,0,.009-.039.416.416,0,0,0,.006-.043.478.478,0,0,0-.178-.426.687.687,0,0,0-.082-.063c-.02-.014-.042-.027-.065-.04a.784.784,0,0,0-.074-.039c-.026-.013-.053-.025-.082-.037l-.045-.018q-.046-.018-.1-.034l-.052-.016c-.036-.011-.073-.021-.112-.031l-.06-.015h-1.829a.492.492,0,0,1-.376-.162c-.139-.161-.2-.456.314-.944a2.965,2.965,0,0,1,.888-.582l.084-.035a4.244,4.244,0,0,1,4.375.776,4.365,4.365,0,0,1,.688.761,5.267,5.267,0,0,1,.341.549,2.983,2.983,0,0,0,.676.852,2.747,2.747,0,0,0,1.265.629l.119.022h.01l.089,0q.3.009.6.044t.608.1l.2.044a7.214,7.214,0,0,1,5.578,7.03Z" transform="translate(-97.953 -153.616)" fill="url(#linear-gradient-7)"/>
      <path id="Path_27" data-name="Path 27" d="M543.524,655.5l-.034-.019-.135-.092C543.411,655.424,543.467,655.461,543.524,655.5Z" transform="translate(-407.064 -445.544)" fill="url(#linear-gradient-4)"/>
      <path id="Path_28" data-name="Path 28" d="M201.884,405.009a.42.42,0,0,1-.006.043.337.337,0,0,1-.009.039c0,.015-.008.032-.013.047s-.006.017-.008.025l-.012.031a.306.306,0,0,1-.015.034,1.119,1.119,0,0,1-.085.153,1.3,1.3,0,0,1-.542.453l-.007,0-.082.04-.041.021-.04.021-.019.01-.048.027-.065.04,0,0-.058.039-.057.04-.048.039-.047.041-.032.031c-.02.02-.04.041-.057.061l-.025.031c-.015.02-.029.04-.042.061l0,0-.015.027c0,.006-.007.014-.01.02a.114.114,0,0,0-.01.02l-.009.019c-.008.02-.015.04-.021.06a.52.52,0,0,0-.021.146.41.41,0,0,0,0,.055.381.381,0,0,0,.008.052.7.7,0,0,0,.07.191.332.332,0,0,0,.019.034c.006.011.013.023.02.033s.015.023.023.035l0,0,.008.01.027.036c.012.015.023.03.036.044l.023.026a1.685,1.685,0,0,0,.177.167c.019.017.038.034.056.053a.679.679,0,0,1,.046.051l.032.041,0,0c.009.011.017.023.025.035l.015.024a.389.389,0,0,1,.021.036c.007.013.014.026.02.04l.018.042c.006.017.012.034.018.05s.011.038.016.057.007.036.01.052a.411.411,0,0,1,0,.165.091.091,0,0,1,0,.015.2.2,0,0,1-.006.021.353.353,0,0,1-.037.077.339.339,0,0,1-.033.044.514.514,0,0,1-.187.131.287.287,0,0,1-.034.013.747.747,0,0,1-.254.042h-1.5l-.012,0a1.871,1.871,0,0,1-.874-.406.357.357,0,0,1-.032-.029,1.08,1.08,0,0,1-.287-.45,1.271,1.271,0,0,1-.044-.563,1.768,1.768,0,0,1,.035-.191,1.547,1.547,0,0,1,.735-1.094,1.29,1.29,0,0,0,.618-.6c.136-.276.214-.585-.031-.694h1.858l.06.015c.04.01.077.02.112.031l.053.016.1.034.045.018c.029.012.057.024.082.037s.051.026.074.039.045.027.065.04a.779.779,0,0,1,.082.063A.478.478,0,0,1,201.884,405.009Z" transform="translate(-74.813 -204.111)" fill="url(#linear-gradient-9)"/>
      <path id="Path_29" data-name="Path 29" d="M201.894,405.015a.411.411,0,0,1-.006.043.327.327,0,0,1-.009.039c0,.015-.008.032-.013.047s-.006.017-.008.025l-.012.031a.3.3,0,0,1-.015.034,1.119,1.119,0,0,1-.085.153,1.3,1.3,0,0,1-.542.452l-.007,0-.082.04-.041.021-.04.021-.019.01-.048.027c-.023.013-.044.026-.065.04l0,0-.058.039-.057.04-.048.039-.047.041-.032.031c-.02.02-.04.041-.057.061l-.025.031c-.015.02-.029.04-.042.061l0,0-.015.027c0,.006-.007.014-.01.02a.121.121,0,0,0-.01.02l-.009.019c-.008.02-.015.04-.021.06a.518.518,0,0,0-.021.146.416.416,0,0,0,0,.055.369.369,0,0,0,.008.052.7.7,0,0,0,.069.192.321.321,0,0,0,.019.034c.006.011.013.023.02.033s.015.023.023.035l0,0,.008.01.027.036c.012.015.023.03.036.044l.023.026a1.682,1.682,0,0,0,.177.167c.019.017.038.034.056.053s.031.033.046.051l.032.041,0,0c.009.011.017.023.025.036l.015.024a.386.386,0,0,1,.021.036c.007.013.014.026.02.04l.018.042c.006.017.012.034.018.05s.011.038.016.057.007.036.01.053a.41.41,0,0,1,0,.165.094.094,0,0,1,0,.015.2.2,0,0,1-.006.021.354.354,0,0,1-.037.077.343.343,0,0,1-.033.044.516.516,0,0,1-.187.131.3.3,0,0,1-.034.013.746.746,0,0,1-.254.042h-1.5l-.012,0h-.006l-.009,0a2.025,2.025,0,0,1-.508-.171,1.5,1.5,0,0,1-.351-.233.374.374,0,0,1-.032-.029,1.08,1.08,0,0,1-.287-.45,1.271,1.271,0,0,1-.044-.563,1.769,1.769,0,0,1,.035-.191,1.546,1.546,0,0,1,.735-1.094,1.29,1.29,0,0,0,.618-.6c.136-.276.214-.585-.031-.694h1.858l.06.015c.04.01.077.02.112.031l.053.016.1.034.045.018c.029.012.057.024.082.037l.074.039c.023.013.045.027.065.04a.793.793,0,0,1,.082.063A.478.478,0,0,1,201.894,405.015Z" transform="translate(-74.822 -204.117)" opacity="0.08" fill="url(#linear-gradient-10)"/>
      <path id="Path_30" data-name="Path 30" d="M288.082,667.54a4.121,4.121,0,0,0,.569-.248A4.43,4.43,0,0,1,288.082,667.54Zm0,0a4.121,4.121,0,0,0,.569-.248A4.43,4.43,0,0,1,288.082,667.54Zm0,0a4.121,4.121,0,0,0,.569-.248A4.43,4.43,0,0,1,288.082,667.54Zm0,0a4.121,4.121,0,0,0,.569-.248A4.43,4.43,0,0,1,288.082,667.54Zm0,0a4.121,4.121,0,0,0,.569-.248A4.43,4.43,0,0,1,288.082,667.54Zm0,0a4.121,4.121,0,0,0,.569-.248A4.43,4.43,0,0,1,288.082,667.54Z" transform="translate(-161.614 -456.992)" fill="url(#linear-gradient-11)"/>
      <path id="Path_31" data-name="Path 31" d="M530.635,617.468a5.258,5.258,0,0,1-1.586,3.741,5.413,5.413,0,0,1-3.8,1.552h-3.235a4.47,4.47,0,0,0,2.393-.762,4.583,4.583,0,0,0,.425-.323h.417a4.32,4.32,0,0,0,3.359-1.594l0,0a.174.174,0,0,0,.015-.019q.057-.072.112-.145l.019-.028.02-.028a4.194,4.194,0,0,0-.17-5.066,4.1,4.1,0,0,0-.3-.331,4.21,4.21,0,0,0-1.912-1.1v-.049c0-.136,0-.271-.011-.4-.012-.229-.036-.455-.069-.677a5.262,5.262,0,0,1,2.291,1.046,5.43,5.43,0,0,1,.469.418,5.28,5.28,0,0,1,1.556,3.775Z" transform="translate(-386.546 -404.047)" fill="url(#linear-gradient-12)"/>
      <path id="Path_32" data-name="Path 32" d="M147.81,476.922a3.26,3.26,0,0,1-.027.331c-.006.042-.012.084-.019.126h0q-.012.074-.027.148c-.038.2-.089.4-.15.606h0a9.558,9.558,0,0,0-1.324.588.229.229,0,0,1-.032.016,4.435,4.435,0,0,1-.569.248l-.034.011c-.076.027-.153.05-.23.072a4.292,4.292,0,0,1-1.157.159l-.137,0c-.027,0-.053,0-.078,0l-.052,0-.091-.007a.465.465,0,0,1-.057-.006.656.656,0,0,1-.068-.006,4.322,4.322,0,0,1-.656-.127l-.067-.019c-.133-.039-.263-.084-.389-.134V478.9c-.022,0-.044,0-.066-.006a4.224,4.224,0,0,1-1.247-.8,4.276,4.276,0,0,1-1.366-3.311,4.215,4.215,0,0,1,.175-1.05,4.306,4.306,0,0,1,2.06-2.537,1.271,1.271,0,0,0,.044.563,1.08,1.08,0,0,0,.287.45.356.356,0,0,0,.032.029,3.2,3.2,0,0,0-1.5,2.41q-.009.088-.012.177a3.192,3.192,0,0,0,1.516,2.848l.078.047a3.083,3.083,0,0,0,.637.28l.038.012.02.006.017,0c.046.014.093.026.14.037s.105.023.158.033l.076.013.037.006h0l.064.009.034,0,.095.01.034,0c.039,0,.078.006.116.006h0c.043,0,.086,0,.128,0s.091,0,.136,0l.084,0h0l.048,0,.052-.006.057-.006.011,0,.023,0,.038-.006.025,0,.015,0,.028,0,.063-.01.031-.006.084-.018h0l.043-.009.031-.009.018,0a.128.128,0,0,0,.025-.006c.036-.008.072-.019.108-.03l.007,0,.034-.01c.023-.006.046-.015.07-.023l.01,0,.019-.007.057-.021.023-.008.053-.02a2.894,2.894,0,0,0,.31-.145c.307-.165.62-.314.936-.445A10.242,10.242,0,0,1,147.81,476.922Z" transform="translate(-19.195 -268.439)" fill="url(#linear-gradient-13)"/>
      <path id="Path_33" data-name="Path 33" d="M374.376,605.247c0,.007,0,.015-.006.023-.022.09-.045.183-.07.278-.013.051-.027.1-.042.157-.03.106-.061.214-.095.325-.017.056-.034.111-.053.168s-.033.1-.051.158c-.066.2-.14.407-.222.618-.024.063-.049.127-.076.191s-.057.139-.087.209-.061.141-.092.211-.065.142-.1.213-.068.142-.1.214a10.159,10.159,0,0,1-2.352,3.124l-.189-3.1s0-.038,0-.106q0-.025,0-.056t0-.073c0-.016,0-.033,0-.051a.122.122,0,0,1,0-.016c0-.026,0-.053.009-.082l0-.024a.015.015,0,0,0,0-.006c0-.023.006-.048.01-.073s.008-.056.013-.085.01-.053.015-.081c0,0,0-.007,0-.01a.218.218,0,0,1,.006-.031c0-.018.007-.036.011-.054s.013-.057.02-.085.015-.058.023-.088.016-.06.026-.09.019-.061.029-.092.02-.06.031-.09l0,0q.022-.059.046-.119c0-.014.011-.027.017-.04l.018-.04c.015-.035.032-.069.049-.1s.02-.041.031-.061a.158.158,0,0,1,.011-.02c.016-.03.032-.06.05-.09s.035-.059.054-.089.038-.058.058-.087.038-.054.057-.08.046-.06.07-.089.063-.074.1-.11.041-.043.062-.064.049-.049.075-.072l.006,0h0a.454.454,0,0,1,.037-.032l.044-.038c.018-.015.035-.029.053-.043s.041-.032.063-.048l.049-.035.059-.04q.034-.023.07-.044l.054-.031.056-.031c.038-.02.077-.04.116-.057l.06-.028c.041-.018.082-.035.125-.051l.065-.023h0l.015-.006.009,0,.009,0,.031-.01.04-.013c.047-.015.1-.028.145-.04l.087-.02c.034-.008.068-.015.1-.022l.057-.01.065-.01c.068-.01.138-.019.21-.026a3.91,3.91,0,0,1,.411-.019A1.712,1.712,0,0,1,374.376,605.247Z" transform="translate(-241.186 -397.182)" opacity="0.07" fill="url(#linear-gradient-14)" style="mix-blend-mode: multiply;isolation: isolate"/>
      <path id="Path_34" data-name="Path 34" d="M133.478,498.338a10.861,10.861,0,0,1-.28,1.648c0,.007,0,.015-.006.023q-.033.135-.07.278l-.042.157c-.031.106-.061.214-.095.325-.017.056-.034.112-.052.168s-.033.105-.051.158c-.066.2-.141.407-.222.618-.024.063-.049.127-.077.192s-.057.139-.087.209-.061.141-.091.211-.065.142-.1.213-.068.142-.1.214a10.164,10.164,0,0,1-2.353,3.124,8.79,8.79,0,0,1-1.075.816,6.5,6.5,0,0,0-.538.39l-3.48,2.82a3.286,3.286,0,0,1-2.071.734h-2.171a.522.522,0,0,1-.45-.242c-.084-.141-.1-.326.152-.516a.62.62,0,0,1,.061-.042l.011-.007a1.829,1.829,0,0,1,.355-.129l.044-.011a4.084,4.084,0,0,1,1.284-.086,4.782,4.782,0,0,0,3.026-.8c1.619-1.091,3.817-2.94,4-5.03a2.29,2.29,0,0,1,.452,1.69s3.592-4.4,2.967-7.084a3.243,3.243,0,0,1,.4,1.45s1.17-2.825-1.279-4.213c.037.009.076.019.116.031l.078.023.055.018a2.935,2.935,0,0,1,.416.173A2.387,2.387,0,0,1,133.478,498.338Z" transform="translate(-0.008 -291.922)" fill="#380179" opacity="0.2"/>
      <path id="Path_35" data-name="Path 35" d="M298.769,755.992l-.093,2.79-.072.439c-.035.209-.065.419-.081.631a1.125,1.125,0,0,1-.607,1.067.937.937,0,0,1-.382.074h-4.166a.37.37,0,0,1-.261-.635h0a3.89,3.89,0,0,1,2.054-.154s2.407.319,2-1.85A1.731,1.731,0,0,1,298.769,755.992Z" transform="translate(-166.336 -542.279)" fill="url(#linear-gradient-15)"/>
      <path id="Path_36" data-name="Path 36" d="M410.056,500.474v2.958c0,.031,0,.062,0,.094a.206.206,0,0,1,0,.032q0-.057,0-.114c0-.034,0-.069-.008-.1s-.006-.056-.01-.085-.006-.047-.011-.07-.006-.039-.01-.059,0-.02-.006-.031-.009-.045-.014-.068-.009-.043-.015-.065a.026.026,0,0,0,0-.006c-.007-.03-.015-.06-.023-.09s-.022-.079-.035-.119c-.018-.058-.038-.116-.06-.173h0c-.023-.06-.047-.119-.074-.177-.014-.034-.03-.068-.047-.1s-.029-.061-.044-.092-.031-.061-.048-.091-.032-.061-.05-.091-.034-.059-.052-.089c-.053-.089-.108-.176-.167-.261l-.06-.085c-.019-.028-.04-.057-.061-.084l-.062-.082c-.02-.027-.041-.054-.064-.081s-.031-.04-.049-.061a.4.4,0,0,0-.031-.037c-.016-.022-.035-.043-.052-.064l0,0,0,0c-.019-.025-.041-.049-.063-.074s-.044-.052-.068-.077c-.114-.128-.233-.25-.352-.366-.048-.048-.1-.093-.143-.137l-.072-.066c-.049-.046-.1-.09-.148-.133s-.091-.08-.137-.118c-.023-.021-.047-.04-.07-.06l-.069-.057-.069-.056c-.023-.019-.045-.037-.068-.054-.2-.161-.393-.3-.555-.413l-.053-.036c-.07-.048-.134-.091-.191-.129l-.081-.052-.042-.027-.058-.036-.065-.04-.014-.008-.011-.007c-.057-.036-.113-.074-.169-.112-.318-.216-.61-.408-.879-.579l-.143-.09-.063-.04q-.307-.19-.57-.343l-.1-.06-.1-.057c-.295-.166-.546-.3-.76-.4l-.07-.033c-.066-.031-.129-.06-.188-.085l-.085-.036-.081-.033-.059-.023a10.853,10.853,0,0,0,.28-1.648,2.386,2.386,0,0,0-1.276-2.478,2.935,2.935,0,0,0-.416-.173l-.054-.018-.079-.023c-.04-.011-.078-.022-.116-.031s-.092-.023-.137-.032l-.059-.012c-.095-.018-.182-.031-.257-.04-.121-.015-.213-.019-.263-.019.678-.029,3.853.04,3.493,3.915A17.75,17.75,0,0,1,410.056,500.474Z" transform="translate(-270.203 -289.273)" opacity="0.3" fill="url(#linear-gradient-16)"/>
      <path id="Path_37" data-name="Path 37" d="M380,609.624a13.279,13.279,0,0,1-4.176,6.646l-.072-1.177a10.163,10.163,0,0,0,2.353-3.124c.036-.072.07-.143.1-.214s.067-.142.1-.213.063-.141.091-.211.061-.14.087-.209.052-.128.077-.191c.082-.211.156-.418.222-.618.018-.053.035-.106.051-.158s.036-.112.052-.168c.034-.111.064-.219.095-.325.015-.053.028-.106.042-.157.025-.1.048-.188.07-.278,0-.008,0-.016.006-.023l.059.023.081.033.085.036c.059.025.122.054.187.085l.071.033C379.71,609.474,379.848,609.543,380,609.624Z" transform="translate(-245.912 -401.138)" opacity="0.3" fill="url(#linear-gradient-17)"/>
      <path id="Path_38" data-name="Path 38" d="M636.131,613.274v1.517a4.111,4.111,0,0,0-.3-.331,4.21,4.21,0,0,0-1.912-1.1v-.049a7.228,7.228,0,0,0-.081-1.081A5.262,5.262,0,0,1,636.131,613.274Z" transform="translate(-494.067 -404.047)" fill="url(#linear-gradient-18)"/>
      <path id="Path_39" data-name="Path 39" d="M528.61,816.3v1.514a5.4,5.4,0,0,1-3.359,1.165h-3.235a4.481,4.481,0,0,0,2.818-1.085h.417A4.322,4.322,0,0,0,528.61,816.3Z" transform="translate(-386.546 -600.269)" fill="url(#linear-gradient-19)"/>
      <path id="Path_40" data-name="Path 40" d="M226.238,620.081a3.255,3.255,0,0,1-.027.331c-.006.042-.012.084-.019.126h0a6.064,6.064,0,0,1-.176.754h0a9.565,9.565,0,0,0-1.324.588.226.226,0,0,1-.032.016,4.431,4.431,0,0,1-.569.248l-.034.011c-.076.027-.153.05-.23.072a4.292,4.292,0,0,1-1.157.159l-.137,0c-.027,0-.053,0-.078,0l-.052,0-.091-.007a.458.458,0,0,1-.057-.006.639.639,0,0,1-.068-.006,4.318,4.318,0,0,1-.656-.127l.18-1.079.038.012.02.006.017,0c.046.014.093.026.14.037s.105.023.158.033l.076.013.037.006h0l.064.009.034,0,.095.01.034,0c.039,0,.078.006.116.006h0c.043,0,.086,0,.128,0s.091,0,.136,0l.084,0h0l.048,0,.052-.006.057-.006.01,0,.023,0,.038-.006.025,0,.015,0,.028,0,.063-.01.032-.006.084-.018h0l.043-.009.032-.009.018,0a.122.122,0,0,0,.025-.006c.036-.008.072-.019.108-.03l.007,0,.034-.01c.023-.006.046-.015.07-.023l.01,0,.019-.007.057-.021.023-.008.053-.02a2.9,2.9,0,0,0,.31-.145c.307-.165.62-.314.936-.445A10.24,10.24,0,0,1,226.238,620.081Z" transform="translate(-97.623 -411.598)" fill="url(#linear-gradient-20)"/>
      <path id="Path_41" data-name="Path 41" d="M147.031,472.235a3.2,3.2,0,0,0-1.5,2.41l-.921-.916a4.306,4.306,0,0,1,2.06-2.537,1.271,1.271,0,0,0,.044.563,1.08,1.08,0,0,0,.287.45A.356.356,0,0,0,147.031,472.235Z" transform="translate(-23.661 -268.439)" fill="url(#linear-gradient-21)"/>
      <path id="Path_42" data-name="Path 42" d="M147.737,477.528c-.038.2-.089.4-.15.606h0a9.558,9.558,0,0,0-1.324.588.229.229,0,0,1-.032.016,4.435,4.435,0,0,1-.569.248l-.034.011c-.076.027-.153.05-.23.072a4.292,4.292,0,0,1-1.157.159l-.137,0c-.027,0-.053,0-.078,0l-.052,0-.091-.007a.465.465,0,0,1-.057-.006.656.656,0,0,1-.068-.006,4.322,4.322,0,0,1-.656-.127l-.067-.019c-.133-.039-.263-.084-.389-.134V478.9c-.022,0-.044,0-.066-.006a4.224,4.224,0,0,1-1.247-.8,4.276,4.276,0,0,1-1.366-3.311,4.215,4.215,0,0,1,.175-1.05,4.306,4.306,0,0,1,2.06-2.537,1.271,1.271,0,0,0,.044.563s-3.068,2.163-.975,5.166C141.27,476.922,143.086,480.273,147.737,477.528Z" transform="translate(-19.195 -268.439)" fill="url(#radial-gradient)" style="mix-blend-mode: soft-light;isolation: isolate"/>
      <path id="Path_43" data-name="Path 43" d="M530.635,617.468a5.258,5.258,0,0,1-1.586,3.741,5.413,5.413,0,0,1-3.8,1.552h-3.235a4.47,4.47,0,0,0,2.393-.762c5.518.824,5.623-4.7,5.623-4.7a4.533,4.533,0,0,0-3.643-4.394c-.012-.229-.036-.455-.069-.677a5.262,5.262,0,0,1,2.291,1.046,5.43,5.43,0,0,1,.469.418,5.28,5.28,0,0,1,1.556,3.775Z" transform="translate(-386.546 -404.047)" fill="url(#radial-gradient-2)" style="mix-blend-mode: soft-light;isolation: isolate"/>
      <path id="Path_44" data-name="Path 44" d="M447.607,736.192a4.5,4.5,0,0,1-3.792,2.266h-.2a3.165,3.165,0,0,1-2.93-2.21l.123-3.692s.173,3.832,2.535,3.692a1.637,1.637,0,0,1-1.808.062,2.7,2.7,0,0,0,3.824.59,2.035,2.035,0,0,1-1.189.929S446.573,737.63,447.607,736.192Z" transform="translate(-308.344 -519.745)" fill="#380179" opacity="0.2"/>
      <path id="Path_45" data-name="Path 45" d="M468.005,615.423v0a0,0,0,0,1,0,0s0,0,0,0v.028l0,.022a4.464,4.464,0,0,1-.588,2.1,4.5,4.5,0,0,1-3.792,2.266,5.411,5.411,0,0,0,3.674-2.619c1.162-2.227-.893-4.205-.893-4.205a15.727,15.727,0,0,0-5.119-3.6c.019-.07.036-.139.052-.206,0-.008,0-.016.006-.023l.059.023.081.033.085.036c.059.025.122.054.187.085l.071.033c.125.06.263.129.416.21.107.057.221.12.343.188l.1.057.1.06q.263.153.57.343l.063.04.143.09c.269.17.56.363.879.579l.135.092.034.019a.031.031,0,0,1,.011.007l.015.008.065.04.058.036c.013.008.027.017.041.028s.053.033.081.052c.058.038.121.081.191.129l.054.036c.162.113.352.252.555.413.023.017.045.036.068.054l.069.056.07.057c.023.019.047.039.07.06.046.038.091.078.137.118s.1.087.147.133c.024.021.048.044.073.066.047.044.1.09.143.137.119.116.238.238.352.366.023.025.046.051.068.077s.044.049.063.074l0,0,0,0c.019.021.037.042.053.064s.022.025.031.037.034.04.048.061.044.053.064.081l.062.082c.021.027.041.056.061.084l.06.085c.059.085.115.172.167.261.018.03.036.059.052.089l.05.09c.017.03.032.06.048.091s.031.061.044.092.032.068.047.1c.026.058.051.117.074.177h0c.021.057.041.115.06.173.012.04.024.079.034.119s.017.06.024.09a.025.025,0,0,1,0,.006c.006.022.01.043.014.065s.011.045.015.068,0,.021.006.031.007.04.01.059.007.047.01.07.007.057.011.085,0,.068.008.1Z" transform="translate(-328.152 -401.138)" fill="#fff" opacity="0.18"/>
      <path id="Path_46" data-name="Path 46" d="M152.648,496.754a9.351,9.351,0,0,1-1.152,5.261,8.533,8.533,0,0,1-6.888,5.253,12.266,12.266,0,0,0,2.391-.921,5.311,5.311,0,0,0,1.879-1.519,20.259,20.259,0,0,0,3.176-5.563h0a5.926,5.926,0,0,0,.175-.754h0c.006-.042.013-.084.019-.126a3.279,3.279,0,0,0,.027-.331c0-.144,0-.288-.009-.432a8.936,8.936,0,0,1,.071-1.91c.006-.037.012-.074.019-.112s.013-.074.02-.112c.014-.076.031-.153.049-.229.006-.03.013-.059.022-.088s.022-.085.033-.127c.02-.074.044-.145.068-.217s.053-.15.083-.223c.01-.027.023-.055.035-.082a.209.209,0,0,1,.008-.019c.012-.027.024-.053.037-.079a2.636,2.636,0,0,1,.158-.291.709.709,0,0,1,.052-.08c.017-.026.035-.052.054-.078a2.1,2.1,0,0,1,.162-.2l.019-.02.056-.057.013-.013.065-.06.074-.062c.05-.04.1-.076.156-.111l.077-.047c.027-.015.055-.031.085-.045s.051-.025.077-.036l.033-.015,0,0c.022-.01.044-.019.066-.027s.065-.023.1-.035l.006,0,.017,0c.013,0,.027-.008.041-.012l.014,0,.01,0,.044-.01.052-.011a1.951,1.951,0,0,1,.471-.031C152.413,493.853,152.648,496.754,152.648,496.754Z" transform="translate(-23.661 -289.57)" fill="#fff" opacity="0.18"/>
      <path id="Path_47" data-name="Path 47" d="M347.991,495.986a10.86,10.86,0,0,1-.28,1.648c0,.007,0,.015-.006.023s-.01.042-.016.064a4.489,4.489,0,0,1-4.583-.624,8.556,8.556,0,0,1,.092-1.387c.006-.037.012-.074.019-.112s.013-.074.02-.112c.014-.076.031-.153.049-.229.006-.03.013-.059.022-.088s.022-.085.033-.127c.02-.074.044-.145.068-.217s.053-.15.083-.223c.01-.027.023-.055.035-.082a.209.209,0,0,1,.008-.019c.012-.027.024-.053.037-.079a2.641,2.641,0,0,1,.158-.291.714.714,0,0,1,.052-.08c.017-.026.035-.052.054-.078a2.1,2.1,0,0,1,.162-.2l.019-.02.056-.057.013-.013.065-.06.074-.062c.05-.04.1-.076.156-.111l.077-.047c.027-.015.055-.031.085-.045s.051-.025.077-.036l.033-.015,0,0c.022-.01.044-.019.066-.027s.065-.023.1-.035l.006,0,.017,0c.013,0,.027-.008.041-.012l.014,0,.01,0,.044-.01L345,493.2a1.951,1.951,0,0,1,.471-.031c.041,0,.082,0,.124.008.075.009.162.022.257.04l.059.012q.067.013.136.032h0c.037.009.076.019.116.031l.078.023.055.018a2.934,2.934,0,0,1,.416.173A2.387,2.387,0,0,1,347.991,495.986Z" transform="translate(-214.52 -289.57)" fill="url(#radial-gradient-3)" style="mix-blend-mode: soft-light;isolation: isolate"/>
      <path id="Path_48" data-name="Path 48" d="M358.294,499.8a10.856,10.856,0,0,1-.28,1.649c0,.007,0,.015-.006.023s-.01.042-.016.064c-.017.069-.035.141-.054.214l-.042.157c-.031.106-.061.214-.095.325-.017.056-.034.111-.053.168s-.033.105-.051.158c-.066.2-.141.407-.222.618-.024.063-.049.127-.077.191s-.057.139-.087.209-.061.141-.091.211-.065.142-.1.213-.068.142-.1.214a10.163,10.163,0,0,1-2.353,3.124,8.682,8.682,0,0,1-.844.662l.655-.662a12.624,12.624,0,0,0,3.652-7.183,2.588,2.588,0,0,0-1.569-3.02l.043.014a2.937,2.937,0,0,1,.416.173A2.387,2.387,0,0,1,358.294,499.8Z" transform="translate(-224.824 -293.385)" fill="#fff" opacity="0.2"/>
      <path id="Path_49" data-name="Path 49" d="M294.81,759.817c-1.737.142-1.148.861-1.148.861v0h-.3a.37.37,0,0,1-.261-.635h0a2.54,2.54,0,0,1,1.265-.476s1.929-.355,1.929-1.616l-.033-.54-.019-.315-.072-1.177c.095-.084.187-.169.277-.255l.125,2.014C296.889,759.321,294.81,759.817,294.81,759.817Z" transform="translate(-166.329 -541.964)" fill="#fff" opacity="0.18"/>
      <path id="Path_50" data-name="Path 50" d="M419.9,615.433v0a0,0,0,0,1,0,0s0,0,0,0v.028l0,.022a4.464,4.464,0,0,1-.588,2.1,4.356,4.356,0,0,1-.554.767,9.039,9.039,0,0,1-7.5-4.758h0q.285-.388.524-.784c.17-.28.324-.562.463-.841.036-.072.07-.143.1-.214s.067-.142.1-.213.063-.141.091-.211.061-.14.087-.209.053-.128.077-.191c.082-.211.156-.418.222-.618.018-.053.035-.106.051-.158s.036-.112.053-.168c.034-.111.064-.219.095-.325l.042-.157c.006-.024.013-.048.019-.072.019-.07.036-.139.052-.206,0-.008,0-.016.006-.023l.059.023.081.033.085.036c.059.025.122.054.187.085l.071.033c.125.06.263.129.416.21.107.057.221.12.343.188l.1.057.1.06q.263.153.57.343l.063.04.143.09c.269.171.56.363.879.579l.135.092.034.019a.032.032,0,0,1,.01.007l.015.008.065.04.058.036c.013.008.027.017.041.028s.053.033.081.052c.058.038.121.081.192.129l.054.036c.162.113.352.252.555.413.023.017.045.036.068.054l.069.056.069.057c.023.019.047.039.07.06.046.038.091.078.137.118s.1.087.147.133c.024.021.048.044.073.066.047.044.1.09.143.137.119.116.238.238.352.366.023.025.046.051.068.077s.044.048.063.073l0,0,0,0c.019.021.037.042.053.064s.022.025.031.037.034.04.049.061.044.053.064.081l.062.082c.021.027.041.056.061.084l.06.085c.059.085.115.172.167.261.019.03.036.059.052.089l.05.09c.017.03.032.06.048.091s.031.061.044.092.032.068.047.1c.026.058.051.117.073.177h0c.021.057.041.115.06.173.012.04.024.079.034.119s.017.06.024.09a.024.024,0,0,1,0,.006c.006.022.01.043.015.065s.01.045.015.068,0,.021.006.031.007.04.01.059.007.047.01.07.007.057.01.085,0,.068.008.1Z" transform="translate(-280.049 -401.148)" fill="url(#radial-gradient-4)" style="mix-blend-mode: soft-light;isolation: isolate"/>
      <path id="Path_51" data-name="Path 51" d="M267.544,405.06a1.755,1.755,0,0,1-.862.768,1.032,1.032,0,0,0-.245.155.622.622,0,0,0-.26.529.4.4,0,0,0,.112.21c.18.186.753.831.4,1.17h0a.349.349,0,0,0,.037-.076.2.2,0,0,0,.007-.021.092.092,0,0,0,0-.015.411.411,0,0,0,0-.165.324.324,0,0,0-.01-.053c0-.019-.01-.037-.016-.057s-.006-.018-.009-.027-.006-.015-.009-.023l-.018-.042c-.006-.014-.013-.027-.02-.04a.374.374,0,0,0-.021-.036l-.015-.024c-.008-.012-.016-.024-.025-.036l0,0c-.01-.014-.021-.027-.032-.041a.245.245,0,0,0-.031-.034.148.148,0,0,0-.015-.017c-.018-.019-.036-.036-.056-.052a1.692,1.692,0,0,1-.177-.167l-.023-.026c-.013-.015-.024-.029-.036-.044l-.027-.036a.086.086,0,0,1-.008-.01l0,0c-.008-.011-.016-.023-.023-.035s-.014-.022-.02-.033a.335.335,0,0,1-.019-.034.7.7,0,0,1-.07-.192.372.372,0,0,1-.008-.053.4.4,0,0,1,0-.055.522.522,0,0,1,.021-.146c.006-.019.013-.04.021-.06l.009-.019a.109.109,0,0,1,.01-.02.22.22,0,0,1,.011-.02l.015-.027,0,0c.013-.02.027-.04.042-.061l.025-.031c.017-.02.036-.041.057-.061l.032-.031.047-.041.049-.039.057-.04.058-.039,0,0c.021-.014.043-.027.065-.04l.048-.027.019-.01.04-.021.041-.021.082-.04.007,0a1.3,1.3,0,0,0,.542-.453,1.117,1.117,0,0,0,.085-.153.311.311,0,0,0,.015-.034l.012-.031c0-.008.006-.016.008-.025s.01-.031.013-.047a.335.335,0,0,0,.009-.039.417.417,0,0,0,.006-.043.478.478,0,0,0-.178-.426.686.686,0,0,0-.082-.063c-.02-.014-.042-.027-.065-.04a.8.8,0,0,0-.074-.039c-.026-.013-.053-.025-.082-.037l-.045-.018q-.046-.018-.1-.034l-.052-.016c-.036-.01-.073-.021-.112-.031l-.06-.015h-.025l.007-.008s.831.006.972.551A.6.6,0,0,1,267.544,405.06Z" transform="translate(-140.423 -203.915)" fill="url(#radial-gradient-5)" style="mix-blend-mode: soft-light;isolation: isolate"/>
      <path id="Path_52" data-name="Path 52" d="M237.275,513.09c-.014.041-.027.084-.039.126-.006.02-.012.04-.018.061-.012.042-.023.084-.034.127s-.015.058-.022.088c-.019.076-.035.153-.049.229-.007.037-.014.074-.02.112s-.013.074-.019.112c-.14-.39-.574-1.038-1.914-1.049a4.686,4.686,0,0,1-.738-.058,3.115,3.115,0,0,1-1.687-.705,4.926,4.926,0,0,0,2.456.327A3.46,3.46,0,0,1,237.275,513.09Z" transform="translate(-108.398 -307.802)" opacity="0.3" fill="url(#linear-gradient-22)"/>
      <path id="Path_53" data-name="Path 53" d="M220.044,404.813a.421.421,0,0,1-.006.043.325.325,0,0,1-.009.039c0,.015-.008.032-.013.047s-.006.017-.008.025L220,405a.305.305,0,0,1-.015.034,1.122,1.122,0,0,1-.085.153,1.3,1.3,0,0,1-.542.453l-.007,0-.082.04-.041.021-.04.021-.019.01-.048.027c-.023.013-.044.026-.065.04l0,0-.058.039-.057.04-.048.039-.047.041-.032.031c-.02.02-.04.041-.057.061l-.025.031c-.015.02-.029.04-.042.061l0,0-.015.027a.224.224,0,0,0-.011.02.117.117,0,0,0-.01.02l-.009.019c-.008.02-.015.04-.021.06a.519.519,0,0,0-.021.146.413.413,0,0,0,0,.055.372.372,0,0,0,.008.053.7.7,0,0,0,.069.192.33.33,0,0,0,.019.034c.006.011.013.023.02.033s.015.023.023.035l0,0,.008.01.027.036c.012.015.023.03.036.044l.023.026a1.691,1.691,0,0,0,.177.167c.019.017.038.034.056.052s.031.033.046.051l.032.041,0,0c.009.011.017.023.025.036l.015.024a.381.381,0,0,1,.021.036c.007.013.014.026.02.04l.018.042c.006.017.012.034.018.05s.011.038.016.057.007.036.01.053a.41.41,0,0,1,0,.165.094.094,0,0,1,0,.015.2.2,0,0,1-.006.021.352.352,0,0,1-.037.077.34.34,0,0,1-.033.044.515.515,0,0,1-.187.131.3.3,0,0,1-.034.013.746.746,0,0,1-.254.042h-1.5l-.012,0h-.006l-.009,0a2.022,2.022,0,0,1-.508-.171L218,404.1l0-.008,1.189.008.06.015c.04.01.077.02.112.031l.053.016.1.034.045.018c.029.012.057.024.082.037l.074.039c.023.013.045.027.065.04a.785.785,0,0,1,.082.063A.478.478,0,0,1,220.044,404.813Z" transform="translate(-92.972 -203.915)" fill="url(#linear-gradient-23)"/>
      <path id="Path_54" data-name="Path 54" d="M200.326,404.3l-1.13,4.025h-.117l-.012,0h-.006l-.009,0a2.025,2.025,0,0,1-.508-.171,1.5,1.5,0,0,1-.351-.233.374.374,0,0,1-.032-.029,1.08,1.08,0,0,1-.287-.45,1.271,1.271,0,0,1-.044-.563,1.769,1.769,0,0,1,.035-.191,1.546,1.546,0,0,1,.735-1.094,1.29,1.29,0,0,0,.618-.6c.136-.276.214-.585-.031-.694Z" transform="translate(-74.822 -204.117)" fill="url(#radial-gradient-6)" style="mix-blend-mode: soft-light;isolation: isolate"/>
      <path id="Path_55" data-name="Path 55" d="M197.961,406.718c-.008.068-.02.136-.031.2-.165,1.025,1.061,1.377,1.133,1.4h0l-.009,0a2.025,2.025,0,0,1-.508-.171,1.5,1.5,0,0,1-.351-.233.374.374,0,0,1-.032-.029,1.08,1.08,0,0,1-.287-.45,1.271,1.271,0,0,1-.044-.563,1.769,1.769,0,0,1,.035-.191,1.546,1.546,0,0,1,.735-1.094,1.29,1.29,0,0,0,.618-.6c.136-.276.214-.585-.031-.694h.382c.294.949-.747,1.328-.747,1.328A1.257,1.257,0,0,0,197.961,406.718Z" transform="translate(-74.822 -204.117)" fill="url(#radial-gradient-7)" style="mix-blend-mode: soft-light;isolation: isolate"/>
      <path id="Path_56" data-name="Path 56" d="M232.026,355.81c-1.8,1.623-3.939-.46-3.939-.46-3.028-2.9-4.889-2.161-5.673-1.549h-.069a.492.492,0,0,1-.376-.162c-.139-.161-.2-.456.314-.944a2.965,2.965,0,0,1,.888-.582l.084-.035a4.28,4.28,0,0,1,5.063,1.537,5.267,5.267,0,0,1,.341.549,2.856,2.856,0,0,0,1.941,1.48l.119.022h.01q.349.006.688.046Q231.726,355.749,232.026,355.81Z" transform="translate(-97.953 -153.622)" fill="url(#radial-gradient-8)" style="mix-blend-mode: soft-light;isolation: isolate"/>
      <path id="Path_57" data-name="Path 57" d="M237.21,457.513l-.1-.013a2.625,2.625,0,0,0-.263-.019h-.039c-.029,0-.058,0-.087.009a1.836,1.836,0,0,0-.206.034l-.052.011-.044.011-.009,0-.015,0-.041.012-.017,0-.006,0c-.034.011-.066.022-.1.035s-.044.017-.066.027c0,0,0,0,0,0l-.034.015c-.027.011-.052.023-.077.036s-.057.029-.085.045-.052.031-.077.047c-.053.035-.106.071-.156.111-.025.02-.049.04-.074.062s-.044.039-.065.06l-.013.013c-.019.018-.038.037-.056.057l-.019.02a2,2,0,0,0-.162.2c-.019.026-.037.052-.054.078s-.036.053-.052.08a2.658,2.658,0,0,0-.158.291c-.014.026-.026.053-.037.079a.19.19,0,0,0-.008.019c-.012.027-.024.054-.035.082-.03.073-.057.148-.083.223,0,.01-.007.02-.011.031-.014.041-.027.084-.039.126-.006.02-.012.04-.018.061-.012.042-.023.084-.034.127s-.015.058-.022.088c-.019.076-.035.153-.049.229-.007.037-.014.074-.02.111s-.013.074-.019.112c-.14-.39-.574-1.038-1.914-1.049a4.689,4.689,0,0,1-.738-.058,3.115,3.115,0,0,1-1.687-.705.822.822,0,0,1-.095-.127l.012,0h1.5a.746.746,0,0,0,.254-.042.288.288,0,0,0,.034-.013.514.514,0,0,0,.187-.131.347.347,0,0,0,.033-.044h0a.35.35,0,0,0,.037-.076.2.2,0,0,0,.007-.021.094.094,0,0,0,0-.015.411.411,0,0,0,0-.165.319.319,0,0,0-.01-.053c0-.019-.01-.037-.016-.057s-.006-.018-.009-.027-.006-.015-.009-.023l-.018-.042c-.006-.014-.013-.027-.02-.04a.381.381,0,0,0-.021-.036l-.015-.024c-.008-.012-.016-.024-.025-.036l0,0c-.01-.014-.021-.027-.032-.041a.244.244,0,0,0-.031-.034.145.145,0,0,0-.015-.017c-.018-.019-.036-.036-.056-.052a1.69,1.69,0,0,1-.177-.167l-.023-.026c-.013-.015-.024-.029-.036-.044l-.027-.036-.008-.01,0,0c-.008-.011-.016-.023-.023-.035s-.014-.022-.02-.033a.341.341,0,0,1-.019-.034.7.7,0,0,1-.07-.192.369.369,0,0,1-.008-.053.4.4,0,0,1,0-.055.521.521,0,0,1,.021-.146c.006-.019.013-.04.021-.06l.009-.019a.107.107,0,0,1,.01-.02.228.228,0,0,1,.011-.02l.015-.027,0,0c.012-.019.025-.038.04-.057A12.921,12.921,0,0,1,237.21,457.513Z" transform="translate(-106.037 -253.889)" fill="url(#radial-gradient-9)" style="mix-blend-mode: soft-light;isolation: isolate"/>
      <path id="Path_58" data-name="Path 58" d="M381.678,389.716v.463a21.778,21.778,0,0,1-6.391-3.846,2.274,2.274,0,0,0-1.269-1.941,2.933,2.933,0,0,0-.416-.173l-.054-.018-.079-.023c-.04-.011-.078-.022-.116-.031l-.048-.012a9.459,9.459,0,0,1-1.8-4.449,4.363,4.363,0,0,1,.688.761,5.258,5.258,0,0,1,.341.549,2.983,2.983,0,0,0,.676.852,2.746,2.746,0,0,0,1.265.629l.119.022h.01l.089,0q.3.009.6.044t.609.1l.2.044a7.213,7.213,0,0,1,5.578,7.03Z" transform="translate(-241.825 -180.453)" fill="url(#radial-gradient-10)" style="mix-blend-mode: soft-light;isolation: isolate"/>
      <path id="Path_59" data-name="Path 59" d="M409.312,197.463h-.106a1.434,1.434,0,0,1-1.423-1.212l0-.021a3.724,3.724,0,0,0-2.309-2.556,1.284,1.284,0,0,1-.175-1.663,2.779,2.779,0,0,0-1.516,3.106l-.379-.61s-.7,1.291,1.278,2.956c.118.1.245.2.382.3a3.585,3.585,0,0,0,2.337.634,3.634,3.634,0,0,1,1.255.074h0a2.856,2.856,0,0,0,.659.077h0c.038,0,.075,0,.112,0a1.842,1.842,0,0,1-.112,3.68h-2.656a7.175,7.175,0,0,1,2.453,1.085h.2a2.913,2.913,0,0,0,1.792-.613h0a2.926,2.926,0,0,0-1.792-5.24Z" transform="translate(-272.381)" fill="url(#linear-gradient-24)"/>
      <path id="Path_60" data-name="Path 60" d="M495.427,445.519h0a2.913,2.913,0,0,1-1.792.613h-.2a7.174,7.174,0,0,0-2.453-1.085h2.656a1.831,1.831,0,0,0,1.263-.5Z" transform="translate(-356.703 -242.815)" fill="url(#linear-gradient-25)"/>
    </g>
  </g>
</svg>
