<svg xmlns="http://www.w3.org/2000/svg" width="230.117" height="176.421" viewBox="0 0 230.117 176.421">
  <g id="Group_875" data-name="Group 875" transform="translate(-2136.029 -103.604)">
    <g id="Environment" transform="translate(2152.693 103.604)">
      <g id="Tree-" transform="translate(40.855 0)">
        <path id="Tree-base" d="M2452.636,111.723q0-.042,0-.083a7.839,7.839,0,1,0-15.673,0c0,.014,0,.028,0,.042h0a13.829,13.829,0,0,1-3.009,8.754q-3.877,4.872-3.878,8.942a12.415,12.415,0,0,0,.873,4.233h0a13.829,13.829,0,0,1-1.232,12.089q-3.275,5.265-3.275,9.388a17.132,17.132,0,0,0,1.415,6.2h0a13.829,13.829,0,0,1-.979,12.222q-3.873,6.474-3.873,11.328c0,12.343,9.757,22.349,21.793,22.349s21.793-10.006,21.793-22.349q0-4.854-3.873-11.328h0a13.831,13.831,0,0,1-.978-12.222,17.132,17.132,0,0,0,1.415-6.2q0-4.165-3.338-9.474h0a13.83,13.83,0,0,1-1.293-12.078,12.365,12.365,0,0,0,.844-4.158q0-4.019-3.788-8.849h0A13.833,13.833,0,0,1,2452.636,111.723Z" transform="translate(-2423.008 -103.604)" fill="#ffd8fd"/>
        <path id="Tree-base-2" data-name="Tree-base" d="M2498.252,353.011V341.742l7.913-10.335a.23.23,0,0,0-.365-.28l-7.96,10.4a.228.228,0,0,0-.048.14v10.746l-7.443-9.721a.23.23,0,0,0-.365.28l7.808,10.2v1.061a.23.23,0,0,0,.1.193v9.989l-.057.075a.228.228,0,0,0-.048.14v8.391l-7.443-9.721a.23.23,0,0,0-.365.28l7.808,10.2v3.416a.23.23,0,0,0,.1.193v6.024a.228.228,0,0,0-.035.122v18.5a.23.23,0,0,0,.46,0V386.517a.229.229,0,0,0,.035-.122v-2.81l8.271-8.482a.23.23,0,0,0-.329-.321l-7.942,8.145v-9.1a.23.23,0,0,0-.047-.14l-.057-.075v-7.634a.231.231,0,0,0,.1-.193v-1.224l7.808-10.2a.23.23,0,0,0-.365-.279l-7.443,9.721V353.226a.229.229,0,0,0-.047-.14Z" transform="translate(-2476.522 -285.453)" fill="#b24cae"/>
      </g>
      <g id="Tree--2" data-name="Tree-" transform="translate(0 19.931)">
        <path id="Tree-base-3" data-name="Tree-base" d="M2239.566,296.686a20.661,20.661,0,0,1-20.4-20.916c0-11.551,9.131-72.724,20.4-72.724s20.4,61.173,20.4,72.724A20.661,20.661,0,0,1,2239.566,296.686Z" transform="translate(-2219.171 -203.046)" fill="#fec0fb"/>
        <path id="Tree-base-4" data-name="Tree-base" d="M2287.444,455.116V446.2l7.913-10.335a.23.23,0,0,0-.365-.28l-7.96,10.4a.229.229,0,0,0-.047.14v8.391l-7.443-9.721a.23.23,0,0,0-.365.279l7.808,10.2v3.416a.23.23,0,0,0,.1.193v6.338l-7.548-9.858a.23.23,0,0,0-.365.28l7.913,10.335v9.5a.23.23,0,0,0-.035.122v18.5a.23.23,0,1,0,.46,0V478.583a.23.23,0,0,0,.035-.122v-2.81l8.271-8.482a.23.23,0,0,0-.329-.321l-7.942,8.144V455.331a.228.228,0,0,0-.048-.14Z" transform="translate(-2267.112 -388.907)" fill="#b24cae"/>
      </g>
      <g id="Tree--3" data-name="Tree-" transform="translate(166.357 25.944)">
        <path id="Tree-base-5" data-name="Tree-base" d="M3069.566,326.686a20.661,20.661,0,0,1-20.4-20.916c0-11.551,9.131-72.724,20.4-72.724s20.4,61.173,20.4,72.724A20.661,20.661,0,0,1,3069.566,326.686Z" transform="translate(-3049.171 -233.046)" fill="#ffd8fd"/>
        <path id="Tree-base-6" data-name="Tree-base" d="M3117.444,485.116V476.2l7.913-10.335a.23.23,0,0,0-.365-.28l-7.96,10.4a.229.229,0,0,0-.047.14v8.391l-7.443-9.721a.23.23,0,0,0-.365.279l7.808,10.2v3.416a.23.23,0,0,0,.1.193v6.338l-7.548-9.858a.23.23,0,0,0-.365.279l7.913,10.335v9.5a.23.23,0,0,0-.035.122v18.5a.23.23,0,1,0,.46,0V508.583a.23.23,0,0,0,.035-.122v-2.81l8.271-8.482a.23.23,0,0,0-.329-.321l-7.942,8.145V485.331a.228.228,0,0,0-.048-.14Z" transform="translate(-3097.112 -418.907)" fill="#b24cae"/>
      </g>
    </g>
    <g id="Leaves-" transform="translate(2288.623 209.912)">
      <path id="Leaves-base" d="M3001.129,685.947c-7.125,1-10.345-27.526-11.47-35.528s3.74-15.3,10.865-16.3,13.813,4.674,14.938,12.676S3008.254,684.945,3001.129,685.947Z" transform="translate(-2971.031 -634.002)" fill="#fec0fb"/>
      <path id="Leaves-base-2" data-name="Leaves-base" d="M3053.62,747.6v-41.79" transform="translate(-3022.301 -691.421)" fill="none" stroke="#b24cae" stroke-linecap="round" stroke-linejoin="round" stroke-width="2"/>
      <path id="Leaves-base-3" data-name="Leaves-base" d="M3055.287,770.419c-5.35-3.214,8.668-25.229,12.452-31.525s11.187-8.8,16.537-5.582,6.619,10.925,2.835,17.222S3060.636,773.634,3055.287,770.419Z" transform="translate(-3022.673 -712.286)" fill="#ffd8fd"/>
      <path id="Leaves-base-4" data-name="Leaves-base" d="M3061.388,849.513c-1.882-4.035,21.968-14.623,28.626-17.727s13.58-2.351,15.462,1.684-1.991,9.822-8.648,12.927S3063.269,853.548,3061.388,849.513Z" transform="translate(-3028.427 -790.614)" fill="#fec0fb"/>
      <path id="Leaves-base-5" data-name="Leaves-base" d="M3066.62,894.231l25.755-7.917" transform="translate(-3032.696 -835.743)" fill="none" stroke="#b24cae" stroke-linecap="round" stroke-linejoin="round" stroke-width="2"/>
      <path id="Leaves-base-6" data-name="Leaves-base" d="M3064.62,823.965l20.645-23.651" transform="translate(-3031.096 -766.98)" fill="none" stroke="#b24cae" stroke-linecap="round" stroke-linejoin="round" stroke-width="2"/>
      <path id="Leaves-base-7" data-name="Leaves-base" d="M2930.734,781.939c-2.979,3.308-22.044-14.508-27.5-19.424s-7.47-11.582-4.491-14.891,9.819-2.005,15.279,2.91S2933.712,778.631,2930.734,781.939Z" transform="translate(-2897.361 -723.388)" fill="#ffd8fd"/>
      <path id="Leaves-base-8" data-name="Leaves-base" d="M2998.239,840.8l-12.928-16.335" transform="translate(-2967.683 -786.287)" fill="none" stroke="#b24cae" stroke-linecap="round" stroke-linejoin="round" stroke-width="2"/>
      <path id="Leaves-base-9" data-name="Leaves-base" d="M2933.522,865.96c-.768,2.866-19.811-2.57-25.2-4.013s-9.128-4.936-8.36-7.8,5.756-4.02,11.142-2.577S2934.291,863.094,2933.522,865.96Z" transform="translate(-2899.364 -807.464)" fill="#cbeffc"/>
      <path id="Leaves-base-10" data-name="Leaves-base" d="M2978.567,894.83l-21.947-7.516" transform="translate(-2944.743 -836.543)" fill="none" stroke="#22537f" stroke-linecap="round" stroke-linejoin="round" stroke-width="2"/>
    </g>
    <g id="Boy" transform="translate(2184.355 130.514)">
      <g id="_-Torch" data-name="-Torch" transform="translate(0 7.515)">
        <path id="_-Torch-base" data-name="-Torch-base" d="M2424.552,506.584a1.136,1.136,0,0,1-1.364,1.088,2.05,2.05,0,0,1-1.6-1.6L2412,458.34a6.744,6.744,0,0,1,6.162-8.056q.314-.021.629-.014a7.034,7.034,0,0,1,6.873,7.192Z" transform="translate(-2404.909 -415.211)" fill="#ffc55f"/>
        <path id="_-Torch-base-2" data-name="-Torch-base" d="M2388.22,321.621c-4.87,1.768-13.1-6.1-10.63-14.973s4.653-14.2,2.326-16.952,6.085-1.406,6.085,3.882.64-13.209,7.088-18.22q1.688,9.2,6.232,14.338c4.544,5.135,3.591,9.19,1.7,14.085q3.278.646,2.9-1.622c2.91,2.754.078,14.344-6.691,17.531S2393.09,319.852,2388.22,321.621Z" transform="translate(-2377.139 -275.358)" fill="#f95b03"/>
        <path id="_-Torch-base-3" data-name="-Torch-base" d="M2426.49,459.648q-.332.191-.678.355c-6.769,3.188-4.14.162-9.01,1.93a5.081,5.081,0,0,1-3.3-.055l-.526-3.257q-.039-.241-.06-.485a6.709,6.709,0,0,1,6.1-7.268q.19-.017.382-.023a6.822,6.822,0,0,1,7.031,6.606Z" transform="translate(-2405.721 -415.67)" fill="#ec961f"/>
        <path id="_-Torch-base-4" data-name="-Torch-base" d="M2435.667,463.923l2.233-4.364a.6.6,0,0,1,1.071.548l-2.234,4.364A.6.6,0,1,1,2435.667,463.923Z" transform="translate(-2423.877 -422.372)" fill="#1c2229"/>
        <path id="_-Torch-base-5" data-name="-Torch-base" d="M2446.708,469.438l2.234-4.364a.6.6,0,1,1,1.07.548l-2.233,4.364A.6.6,0,1,1,2446.708,469.438Z" transform="translate(-2432.705 -426.782)" fill="#1c2229"/>
      </g>
      <g id="Hand-base" transform="translate(7.839 49.369)">
        <path id="Path_64" data-name="Path 64" d="M2425.087,630.329c2.824-1.7-2.91-11.292-3.972-11.754-1.773-.772-4.512,3.514-4.838,5.576-.409,2.58,3.614,6.031,5.69,7.343.168.107,1.1.907,1.341.867.22-.036-.044-1.085.2-1.2A13.685,13.685,0,0,0,2425.087,630.329Z" transform="translate(-2416.248 -591.564)" fill="#ffaa83"/>
        <path id="Path_65" data-name="Path 65" d="M2626.672,683.727l-2.323-3.71Z" transform="translate(-2582.639 -640.765)" fill="none" stroke="#ed5738" stroke-linecap="round" stroke-linejoin="round" stroke-width="6"/>
        <path id="Combined-Shape" d="M2447.788,515.367c7.032,1.857,17.52,4.8,26.288,8.073-3.867-12.2-7.577-28.729-4.92-34.294,3.84-8.042,9.36-4.951,12.269-.3,2.842,4.539,12.841,38.438,9.722,47.5,1.206,5.456-2.135,8.011-9.159,6.573q-7.453-1.525-35.753-18.238a2.815,2.815,0,0,1-2.536-1.084,4.2,4.2,0,0,1-.355-.631q-2.717-1.618-5.612-3.365a16.039,16.039,0,0,1-.339-3.756l-.028-.012c-2.986-1.315,1.806-6.89,3.659-6.208,1.231.453,2.825.2,4.809,1.992A7.815,7.815,0,0,1,2447.788,515.367Z" transform="translate(-2432.368 -484.179)" fill="#ffaa83"/>
        <path id="Path_66" data-name="Path 66" d="M2429.376,621.285a16.731,16.731,0,0,1,1.821-2.182.6.6,0,0,0-.875-.825,17.656,17.656,0,0,0-1.961,2.361,2.7,2.7,0,0,0-.4.871.894.894,0,0,0,.367.985c1,.647,2.474.739,4.393.062q.8-.284,1.39-.531a5.284,5.284,0,0,0,.452,3.384,4.551,4.551,0,0,0,1.07,1.528,1.137,1.137,0,0,0,1.547.016.6.6,0,0,0-.762-.93l-.029-.022a3.661,3.661,0,0,1-.747-1.125,4.434,4.434,0,0,1,.016-3.829.6.6,0,0,0-.943-.69,9.96,9.96,0,0,1-2.393,1.065,4.2,4.2,0,0,1-3.127.18A2.788,2.788,0,0,1,2429.376,621.285Zm7.085,4.763h0Z" transform="translate(-2425.595 -591.249)" fill="#ed5738"/>
      </g>
      <g id="Body-base" transform="translate(39.203 41.274)">
        <path id="Path_67" data-name="Path 67" d="M2608.279,446.979c8.17-7.623,60.586-.038,64.132,6.741s-6.831,52.181-16.694,58.094-32.821,6.533-41.58-4.37S2600.109,454.6,2608.279,446.979Z" transform="translate(-2597.903 -443.792)" fill="#ffaa83"/>
        <path id="Path_68" data-name="Path 68" d="M2582.578,484.417c-4.7.206-8.83-1.557-9.474-5.987-1.25-8.6.888-23.605,7.115-29.994,2.237-2.3,4.208-3.157,5.872-3.072,3.406-1.175,8.692-1.634,14.766-1.565,4.952.056-5.582,32.645,11.769,34.469,21.968,2.309,12.149-32.221,15.879-31.489,9.728,1.908,17.47,4.478,18.759,6.941,2.913,5.568-3.567,37.188-11.439,51.587-1.713,3.133,5.2,16.805,3.442,17.862-8.6,5.155-14.131,4.291-29.721,4.723s-24.595-7.229-24.346-10.245c.4-4.857,1.208-12.059.246-18.21C2584.959,496.326,2583.755,490.792,2582.578,484.417Z" transform="translate(-2572.757 -443.792)" fill="#d46ad0"/>
        <path id="Path_69" data-name="Path 69" d="M2708.21,514.82a.842.842,0,0,1,1.678-.138c.978,11.908,4.683,18.038,11.018,18.7,4.479.471,8.147-1.421,10.825-5.222a24.954,24.954,0,0,0,4.038-13.041.842.842,0,1,1,1.682.067,26.607,26.607,0,0,1-4.343,13.944c-3.012,4.276-7.257,6.465-12.378,5.927C2713.388,534.289,2709.247,527.437,2708.21,514.82Z" transform="translate(-2681.054 -499.856)" fill="#fff"/>
        <path id="Path_70" data-name="Path 70" d="M2581.368,614.741a19.774,19.774,0,0,1-8.437-4.652.6.6,0,0,1,.806-.893,17.256,17.256,0,0,0,7.939,4.357C2581.905,614.373,2582.372,614.741,2581.368,614.741Z" transform="translate(-2572.732 -575.921)" fill="#fff"/>
        <path id="Path_71" data-name="Path 71" d="M2611.519,604.394a.6.6,0,0,1-1.149.355c-1.314-4.258-1.862-7.325-1.629-9.248a.6.6,0,1,1,1.194.144C2609.728,597.354,2610.252,600.286,2611.519,604.394Z" transform="translate(-2601.482 -564.67)" fill="#b24cae"/>
      </g>
      <g id="Head" transform="translate(55.715 0)">
        <g id="Face-base" transform="translate(4.787 22.202)">
          <path id="Path_72" data-name="Path 72" d="M2684.476,374.764c-2.153-.682-6.03-4.1-5.415-6.762.639-2.768,2.849-4.622,4.936-4.14.081.019.161.041.24.066q.107-.674.25-1.3a18.49,18.49,0,0,1,36.026,8.317c-2.252,9.756-13.782,25.729-23.731,23.432C2690.17,392.851,2685.92,383.637,2684.476,374.764Z" transform="translate(-2678.996 -348.635)" fill="#ffaa83"/>
          <path id="Path_73" data-name="Path 73" d="M2751.6,421.244l3.384,3.155a1.055,1.055,0,1,1-1.438,1.543l-3.384-3.155a1.055,1.055,0,1,1,1.438-1.543Z" transform="translate(-2735.629 -406.464)" fill="#253238"/>
          <path id="Path_74" data-name="Path 74" d="M2831.376,429.127l4.32-1.658a1.055,1.055,0,1,1,.756,1.969l-4.319,1.658a1.055,1.055,0,1,1-.756-1.969Z" transform="translate(-2800.293 -411.612)" fill="#22537f"/>
          <path id="Path_75" data-name="Path 75" d="M2784.745,447.09q-2.449,5.929-.888,7.588a6.293,6.293,0,0,0,3,1.991,7.948,7.948,0,0,1-3.946,2.12c-1.783.238-4.55-1.141-2.764-2.2" transform="translate(-2759.409 -427.357)" fill="none" stroke="#ed5738" stroke-linecap="round" stroke-linejoin="round" stroke-width="6"/>
          <path id="Path_76" data-name="Path 76" d="M2690.54,433.985a.6.6,0,0,1,.346,1.152c-1.838.552-2.164,1.36-1.186,2.859a.6.6,0,0,1-1.008.657C2687.265,436.464,2687.951,434.762,2690.54,433.985Z" transform="translate(-2686.164 -416.858)" fill="#ed5738"/>
          <path id="Path_77" data-name="Path 77" d="M2754,520.1a.6.6,0,1,1,.022-1.2c4.3.079,7.3,2.253,8.88,6.439a.6.6,0,0,1-1.125.426C2760.36,522.032,2757.8,520.172,2754,520.1Z" transform="translate(-2738.492 -484.773)" fill="#ed5738"/>
          <path id="Path_78" data-name="Path 78" d="M2720.292,527.728a.6.6,0,1,1,1.142-.376c1.709,5.19,4.623,8.223,8.766,9.18s8.109-.689,11.995-5.006a.6.6,0,1,1,.894.8c-4.156,4.617-8.56,6.435-13.159,5.373S2722.123,533.294,2720.292,527.728Z" transform="translate(-2711.99 -491.201)" fill="#ed5738"/>
          <path id="Path_79" data-name="Path 79" d="M2744.506,444l3.119-.6-2.558-1.641a.6.6,0,1,1,.649-1.012l3.823,2.452a.6.6,0,0,1-.21,1.1l-4.594.889a.6.6,0,1,1-.228-1.181Z" transform="translate(-2730.987 -422.206)" fill="#1c2229"/>
          <circle id="Ellipse_6" data-name="Ellipse 6" cx="1.303" cy="1.303" r="1.303" transform="translate(30.549 23.348)" fill="#1c2229"/>
        </g>
        <path id="Hair" d="M2658.209,262.583l-2.571-1.054a.842.842,0,0,1,.639-1.558l.971.4-.82-.76a.842.842,0,1,1,1.145-1.235l1.32,1.224c.078-.186.162-.367.253-.544,2.884-5.571,4.766-7.029,10.351-4.611,9.625-21.987,24.376-19.387,28.426-7.889,5.679-7.121,10.869-7.045,14.7-4.531l.915-1.621a.842.842,0,0,1,1.466.828l-1.031,1.825a15.553,15.553,0,0,1,2.075,2.231l4.469-3.09a.842.842,0,0,1,.958,1.385l-4.466,3.088.039.062,3.3-1.1a.842.842,0,0,1,.531,1.6l-2.991.994a14.408,14.408,0,0,1,.991,2.529c14.79-2.264,20.856,9.833,2.836,17.149,1.283,8.487-9.341,11.03-13.145,8.807-.224,7.415-6.441,11.426-9.695,11.53a31.528,31.528,0,0,0,2.514-6.905c-1.135-4.156-1.991-5.357-1.58-10.3-3.3,2.193-9.379,2.769-14.981,3.641-2.493.388-10.675-.563-13.172-4.1-.859,3.72-.879,7.6-3.489,12.866-2.116.7-1.141-6.128-2.426-7.414-1.512-1.513-3.505.268-4.51.642C2660.664,275.251,2657.733,268.173,2658.209,262.583Z" transform="translate(-2655.115 -237.863)" fill="#253238"/>
      </g>
      <g id="Hand-base-2" data-name="Hand-base" transform="translate(80.276 49.688)">
        <path id="Path_80" data-name="Path 80" d="M2851.274,515.734c.155,4.325-1.961,27.193-10.777,40.91-1.932,3.006-1.418,4.569-2.857,6.907-5.561,9.036-14.9,10.721-14.9-5.77,0-4.151,3.283-7.767,3.994-11.493,2.435-12.757,8.079-32.519,13.765-36.423C2847.843,504.818,2851.077,510.255,2851.274,515.734Z" transform="translate(-2813.702 -503.433)" fill="#ffaa83"/>
        <path id="Path_81" data-name="Path 81" d="M2869.576,491.591c.166,5.374,1.109,14.211,1.136,22.262s-22.778,14.1-24.536,0,6.041-28.085,12.708-28.085S2869.407,486.11,2869.576,491.591Z" transform="translate(-2832.242 -485.768)" fill="#d46ad0"/>
        <path id="Path_82" data-name="Path 82" d="M2867.538,627.3c-8.383,6.943-16.4,7.076-23.844.367a.6.6,0,0,1,.805-.893c6.982,6.3,14.334,6.174,22.271-.4a.6.6,0,1,1,.767.926Z" transform="translate(-2830.3 -598.084)" fill="#fff"/>
        <path id="Path_83" data-name="Path 83" d="M2854.463,590.676c.991-4.345,2.05-7.275,3.213-8.824a.6.6,0,0,1,.962.722c-1.033,1.377-2.046,4.178-3,8.369a.6.6,0,0,1-1.172-.268Z" transform="translate(-2839.057 -562.402)" fill="#b24cae"/>
        <path id="Path_84" data-name="Path 84" d="M2844.469,688.742v-2.468a.6.6,0,1,1,1.2,0v2.468a.6.6,0,1,1-1.2,0Z" transform="translate(-2831.079 -645.606)" fill="#ed5738"/>
        <path id="Path_85" data-name="Path 85" d="M2891.565,684.057c.779-2.008.78-5.173-.026-9.47-1.253-4.739-1.5-7.6-.6-8.805a.6.6,0,1,1,.966.716c-.575.776-.347,3.449.815,7.846.848,4.509.848,7.884-.03,10.148a.6.6,0,1,1-1.121-.435Z" transform="translate(-2867.804 -629.507)" fill="#ed5738"/>
        <path id="Path_86" data-name="Path 86" d="M2778.954,608.649c-.958-1.18-.644-1.637-1.028-3.1-.132-.5.472-1.3.393-1.833-.058-.4-.666-.967-.66-1.369a14.545,14.545,0,0,1,.66-2.148c.12-.642-.769-1.162-.393-2.2s1.42-1.156,1.8-1.706c.3-.437-1.264-1.083,0-2.346s5.02-1.738,6.894-.853c-.573,3.582,2.62,3.786,4.416,2.71.454-.272.31-2.474,1.006-2.474a5.4,5.4,0,0,1,2.921.617c4.773,3.628,6.3,6.218,5.729,13.63-.287,3.7-10.6,4.353-14.072,3.628C2784.618,610.785,2780.338,610.356,2778.954,608.649Z" transform="translate(-2777.66 -571.218)" fill="#ffaa83"/>
      </g>
      <g id="_-Magnifier-base" data-name="-Magnifier-base" transform="translate(78.564 37.474)">
        <path id="Path_87" data-name="Path 87" d="M2820.237,576.57l4.9,1.042-1.6,7.748-4.9-1.042Z" transform="translate(-2808.713 -546.156)" fill="#1e5b89"/>
        <circle id="Ellipse_7" data-name="Ellipse 7" cx="16.135" cy="16.135" r="16.135" fill="#b24cae"/>
        <circle id="Ellipse_8" data-name="Ellipse 8" cx="14.331" cy="14.331" r="14.331" transform="translate(1.804 2.004)" fill="#fff"/>
        <path id="Path_88" data-name="Path 88" d="M2806.044,444.621c-1.181,5.549-4.725,12.751-9.342,18.229a14.332,14.332,0,1,1,9.342-18.229Z" transform="translate(-2776.313 -432.826)" fill="#ffaa83"/>
        <g id="Eye" transform="translate(8.418 6.614)">
          <circle id="Ellipse_9" data-name="Ellipse 9" cx="7.817" cy="7.817" r="7.817" fill="#fff"/>
          <circle id="Ellipse_10" data-name="Ellipse 10" cx="4.009" cy="4.009" r="4.009" transform="translate(4.009 4.009)" fill="#22537f"/>
          <circle id="Ellipse_11" data-name="Ellipse 11" cx="2.004" cy="2.004" r="2.004" transform="translate(6.013 6.013)" fill="#1c2229"/>
          <circle id="Ellipse_12" data-name="Ellipse 12" cx="1.904" cy="1.904" r="1.904" transform="translate(8.819 4.409)" fill="#fff"/>
        </g>
      </g>
    </g>
    <g id="Frontground" transform="translate(2136.029 217.125)">
      <path id="Leaves" d="M2500.168,787.938q-5.138-13.824-15.047-13.824c-9.909,0-5.132-14.51-15.409-14.51-6.689,0-6.689,8.076-16.271,3.06-9.878-5.172.367-14.092-18.35-15.8s-14.417,15.8-22.125,15.8c-5.551,0-5.908-8.826-10.643-9.542s-5.383,5.138-8.931,4.4c-4.323-.894-2.691-8.32-13.23-8.32s-6.955,14.345-9.524,15.921-5.872-3.685-9.42,2.554,2.6,9.175-2.569,9.175q-9.444,0-10.423,11.082.7,3.392,12.992,3.8c12.3.4,12.849-3.065,28.106-2.447s17.843,0,39.753,0,18.021,4.92,34.749,3.426,29.547,1.6,39.147.979Q2510.863,793.184,2500.168,787.938Z" transform="translate(-2305.696 -731.359)" fill="#fec0fb"/>
      <g id="Leaves-2" data-name="Leaves" transform="translate(6.474 0)">
        <path id="Leaves-base-11" data-name="Leaves-base" d="M2209.2,707.751a1.626,1.626,0,0,1-.809,2.426c-.987.341-6.648,1.34-7.188.341s4.246-3.616,5.233-3.957A2.407,2.407,0,0,1,2209.2,707.751Zm-5.843-3.439a1.625,1.625,0,0,1-.809,2.426c-.986.341-6.648,1.34-7.188.342s4.246-3.616,5.233-3.957A2.407,2.407,0,0,1,2203.357,704.313Zm-5.143-3.62a1.575,1.575,0,0,1-1.228,2.2c-1.061.177-6.989.273-7.372-.765s4.925-2.817,5.986-2.994A2.481,2.481,0,0,1,2198.214,700.693Zm-5.4-3.667a1.561,1.561,0,0,1-1.576,1.954c-1.105.027-7.148-.682-7.384-1.734s5.427-2.049,6.532-2.076A2.505,2.505,0,0,1,2192.816,697.026Zm-4.918-4.472a1.569,1.569,0,0,1-1.778,1.78c-1.122-.067-7.177-1.273-7.318-2.324s5.688-1.547,6.81-1.48A2.5,2.5,0,0,1,2187.9,692.554Zm-4.757-4.29a1.627,1.627,0,0,1-2.173,1.353c-1.129-.271-7.049-2.534-6.978-3.552s6.106-.408,7.235-.136A2.429,2.429,0,0,1,2183.141,688.264Zm-3.9-4.493a1.791,1.791,0,0,1-2.581.693c-1.071-.533-6.459-4.094-6.105-5.01s6.314,1.162,7.386,1.695A2.236,2.236,0,0,1,2179.245,683.77Zm-3.062-5.564a1.99,1.99,0,0,1-2.792.082c-.962-.73-5.59-5.224-5.01-6s6.146,2.462,7.109,3.192A2.023,2.023,0,0,1,2176.182,678.206Zm1.969-1.718a1.853,1.853,0,0,1-1.4-1.843c.071-.8,1.135-4.864,1.981-4.647s1.155,4.633,1.084,5.434A1.252,1.252,0,0,1,2178.152,676.488Zm3.349,5.591a1.9,1.9,0,0,1-1.573-1.727c-.02-.819.563-5.05,1.413-4.915s1.642,4.583,1.662,5.4A1.222,1.222,0,0,1,2181.5,682.08Zm3.681,5.006a1.889,1.889,0,0,1-1.546-1.748c0-.817.659-5.023,1.509-4.874s1.562,4.6,1.567,5.412A1.226,1.226,0,0,1,2185.182,687.086Zm4.579,5.121a1.918,1.918,0,0,1-1.7-1.617c-.1-.828.082-5.163.927-5.1s2.035,4.5,2.131,5.332A1.208,1.208,0,0,1,2189.761,692.207Zm4.86,3.848A1.906,1.906,0,0,1,2193,694.37c-.05-.824.371-5.1,1.219-4.993s1.8,4.556,1.851,5.379A1.215,1.215,0,0,1,2194.621,696.055Zm4.156,3.076a1.836,1.836,0,0,1-1.344-1.877c.1-.792,1.323-4.79,2.167-4.545s.99,4.638.888,5.431A1.264,1.264,0,0,1,2198.777,699.13Zm4.278,2.69a1.788,1.788,0,0,1-1.186-1.953c.177-.767,1.786-4.579,2.617-4.269s.571,4.627.395,5.394A1.3,1.3,0,0,1,2203.055,701.82Zm5.563,3.663a1.861,1.861,0,0,1-1.433-1.825c.056-.8,1.04-4.9,1.888-4.7s1.238,4.628,1.181,5.433A1.246,1.246,0,0,1,2208.618,705.483Z" transform="translate(-2168.33 -669.99)" fill="#ebd4ea"/>
        <path id="Leaves-base-12" data-name="Leaves-base" d="M2250.833,734.026a.577.577,0,0,1,.33.68.461.461,0,0,1-.663.19q-33.923-16.752-41.863-35.512a.411.411,0,0,1,.275-.594.639.639,0,0,1,.687.382Q2217.311,717.447,2250.833,734.026Z" transform="translate(-2200.525 -693.009)" fill="#b24cae"/>
        <path id="Leaves-base-13" data-name="Leaves-base" d="M2354.971,719.633a1.536,1.536,0,0,1-1.684,1.817c-1.11-.034-7.135-1.052-7.316-2.089s5.553-1.7,6.663-1.667A2.5,2.5,0,0,1,2354.971,719.633Zm-4.747-4.442a1.566,1.566,0,0,1-1.985,1.521c-1.125-.182-7.108-1.977-7.137-3s5.907-.886,7.032-.7A2.47,2.47,0,0,1,2350.225,715.192Zm-4.1-5.1a1.6,1.6,0,0,1-2.155,1.321c-1.124-.274-7.02-2.536-6.954-3.54s6.07-.367,7.194-.093A2.429,2.429,0,0,1,2346.121,710.09Zm-3.978-4.9a1.717,1.717,0,0,1-2.467.847c-1.09-.466-6.641-3.694-6.368-4.628s6.266.778,7.355,1.245A2.292,2.292,0,0,1,2342.144,705.192Zm-3.927-5.416a2.079,2.079,0,0,1-2.818-.222c-.893-.807-5.086-5.632-4.423-6.315s5.931,3.033,6.824,3.84A1.909,1.909,0,0,1,2338.217,699.776Zm-2.053-6.122a2.4,2.4,0,0,1-2.748-1.173c-.588-1.006-2.951-6.624-2.022-6.983s4.8,4.679,5.386,5.685A1.627,1.627,0,0,1,2336.164,693.654Zm3.041-.968a1.607,1.607,0,0,1-.7-2.063c.373-.661,2.962-3.774,3.719-3.3s-.6,4.367-.977,5.028A1.426,1.426,0,0,1,2339.205,692.686Zm2.473,6.456a1.8,1.8,0,0,1-1.24-1.911c.143-.772,1.57-4.628,2.4-4.345s.742,4.6.6,5.372A1.264,1.264,0,0,1,2341.678,699.143Zm2.746,5.365a1.792,1.792,0,0,1-1.208-1.925c.158-.766,1.662-4.585,2.487-4.288s.659,4.6.5,5.362A1.272,1.272,0,0,1,2344.424,704.508Zm3.633,5.642a1.85,1.85,0,0,1-1.392-1.832c.068-.794,1.1-4.824,1.941-4.607s1.156,4.6,1.088,5.394A1.229,1.229,0,0,1,2348.057,710.15Zm4.165,4.511a1.823,1.823,0,0,1-1.3-1.881c.113-.781,1.385-4.711,2.217-4.454s.908,4.6.8,5.386A1.249,1.249,0,0,1,2352.222,714.661Zm3.6,3.658a1.71,1.71,0,0,1-.977-2.007c.26-.723,2.288-4.242,3.088-3.857s.07,4.528-.191,5.251A1.336,1.336,0,0,1,2355.825,718.319Z" transform="translate(-2298.32 -682.376)" fill="#f9e1f8"/>
        <path id="Leaves-base-14" data-name="Leaves-base" d="M2392.652,753.377a.544.544,0,0,1,.245.692.483.483,0,0,1-.693.09q-22.873-14.678-27.355-33.586a.39.39,0,0,1,.39-.5.66.66,0,0,1,.623.486Q2370.206,738.969,2392.652,753.377Z" transform="translate(-2325.45 -710.035)" fill="#b24cae"/>
      </g>
      <g id="Leaves--2" data-name="Leaves-" transform="translate(122.296 23.828)">
        <path id="Leaves-base-15" data-name="Leaves-base" d="M2806.538,788.874c.642.011,1.149.751,1.133,1.652s-.619,5.663-1.261,5.652-1.078-4.792-1.063-5.693S2805.9,788.863,2806.538,788.874Z" transform="translate(-2793.492 -788.874)" fill="#fff"/>
        <path id="Leaves-base-16" data-name="Leaves-base" d="M2785.542,809.577c.538-.349,1.373-.02,1.863.736s2.654,5.041,2.115,5.391-3.573-3.37-4.064-4.125A1.458,1.458,0,0,1,2785.542,809.577Z" transform="translate(-2777.312 -805.316)" fill="#fff"/>
        <path id="Leaves-base-17" data-name="Leaves-base" d="M2772.476,831.247a1.825,1.825,0,0,1,2.485.329c.824.769,4.748,5.317,4.2,5.9s-5.359-3.009-6.183-3.778A1.825,1.825,0,0,1,2772.476,831.247Z" transform="translate(-2766.969 -822.467)" fill="#fff"/>
        <path id="Leaves-base-18" data-name="Leaves-base" d="M2764.836,855.14c.564-.722,1.843-.665,2.856.127s5.922,5.569,5.359,6.291-6.387-2.886-7.4-3.677S2764.273,855.862,2764.836,855.14Z" transform="translate(-2760.888 -841.454)" fill="#fff"/>
        <path id="Leaves-base-19" data-name="Leaves-base" d="M2756.005,883.878c.552-.883,2-.97,3.243-.2s7.356,5.592,6.8,6.475-7.563-2.5-8.8-3.278S2755.454,884.761,2756.005,883.878Z" transform="translate(-2753.869 -864.258)" fill="#fff"/>
        <path id="Leaves-base-20" data-name="Leaves-base" d="M2746.3,915.476c.416-1.083,1.986-1.488,3.507-.9s9.238,4.553,8.822,5.636-8.807-1.131-10.327-1.714S2745.882,916.559,2746.3,915.476Z" transform="translate(-2746.196 -889.165)" fill="#fff"/>
        <path id="Leaves-base-21" data-name="Leaves-base" d="M2818.3,809.577a1.458,1.458,0,0,1,.086,2c-.49.756-3.526,4.475-4.064,4.125s1.625-4.635,2.115-5.391S2817.762,809.227,2818.3,809.577Z" transform="translate(-2800.599 -805.316)" fill="#fff"/>
        <path id="Leaves-base-22" data-name="Leaves-base" d="M2821.224,831.247a1.824,1.824,0,0,1-.5,2.456c-.825.769-5.636,4.365-6.183,3.778s3.376-5.136,4.2-5.9A1.824,1.824,0,0,1,2821.224,831.247Z" transform="translate(-2800.799 -822.467)" fill="#fff"/>
        <path id="Leaves-base-23" data-name="Leaves-base" d="M2822.928,855.14c.564.722.2,1.948-.814,2.74s-6.836,4.4-7.4,3.677,4.345-5.5,5.359-6.291S2822.364,854.419,2822.928,855.14Z" transform="translate(-2800.945 -841.454)" fill="#fff"/>
        <path id="Leaves-base-24" data-name="Leaves-base" d="M2824.691,883.878c.552.883-.006,2.226-1.246,3s-8.251,4.161-8.8,3.278,5.565-5.7,6.8-6.475S2824.14,883,2824.691,883.878Z" transform="translate(-2800.896 -864.258)" fill="#fff"/>
        <path id="Leaves-base-25" data-name="Leaves-base" d="M2825.82,915.476c.416,1.083-.48,2.434-2,3.018s-9.912,2.8-10.327,1.714,7.3-5.053,8.822-5.636S2825.4,914.393,2825.82,915.476Z" transform="translate(-2799.99 -889.165)" fill="#fff"/>
        <path id="Leaves-base-26" data-name="Leaves-base" d="M2810.17,833.366a.2.2,0,0,1,.4,0v26.557a.2.2,0,0,1-.4,0Z" transform="translate(-2797.348 -824.289)" fill="#fff"/>
      </g>
      <g id="Leaves--3" data-name="Leaves-" transform="translate(142.193 35.747)">
        <path id="Leaves-base-27" data-name="Leaves-base" d="M2916.29,848.391a1.04,1.04,0,0,1,.308,1.4c-.251.592-1.923,3.581-2.345,3.4s.567-3.458.819-4.05S2915.868,848.212,2916.29,848.391Z" transform="translate(-2900.385 -848.343)" fill="#fff"/>
        <path id="Leaves-base-28" data-name="Leaves-base" d="M2900.766,856.181c.449-.087.913.353,1.036.985s.408,4.044-.042,4.132-1.464-3.184-1.586-3.816S2900.316,856.268,2900.766,856.181Z" transform="translate(-2889.186 -854.601)" fill="#fff"/>
        <path id="Leaves-base-29" data-name="Leaves-base" d="M2886.2,867.226c.519-.242,1.216.153,1.556.882s1.72,4.787,1.2,5.029-2.741-3.423-3.081-4.152A1.3,1.3,0,0,1,2886.2,867.226Z" transform="translate(-2877.632 -863.384)" fill="#fff"/>
        <path id="Leaves-base-30" data-name="Leaves-base" d="M2874.594,881.157c.566-.327,1.4.053,1.855.847s2.429,5.267,1.864,5.594-3.454-3.616-3.913-4.411A1.485,1.485,0,0,1,2874.594,881.157Z" transform="translate(-2868.366 -874.487)" fill="#fff"/>
        <path id="Leaves-base-31" data-name="Leaves-base" d="M2860.875,898.027a1.688,1.688,0,0,1,2.2.737c.613.844,3.372,5.666,2.771,6.1s-4.334-3.678-4.947-4.522A1.687,1.687,0,0,1,2860.875,898.027Z" transform="translate(-2857.433 -887.915)" fill="#fff"/>
        <path id="Leaves-base-32" data-name="Leaves-base" d="M2845.779,916.689a1.881,1.881,0,0,1,2.561.339c.85.793,4.895,5.482,4.33,6.087s-5.524-3.1-6.374-3.895A1.881,1.881,0,0,1,2845.779,916.689Z" transform="translate(-2845.47 -902.694)" fill="#fff"/>
        <path id="Leaves-base-33" data-name="Leaves-base" d="M2917.4,867.72c.263.375.049.978-.478,1.347s-3.529,2.018-3.792,1.643,2.314-2.632,2.841-3A1.04,1.04,0,0,1,2917.4,867.72Z" transform="translate(-2899.554 -863.609)" fill="#fff"/>
        <path id="Leaves-base-34" data-name="Leaves-base" d="M2913.149,885.1c.205.535-.237,1.2-.988,1.491s-4.9,1.382-5.1.847,3.606-2.5,4.357-2.784A1.3,1.3,0,0,1,2913.149,885.1Z" transform="translate(-2894.709 -877.268)" fill="#fff"/>
        <path id="Leaves-base-35" data-name="Leaves-base" d="M2907.529,902.612c.18.628-.389,1.342-1.271,1.6s-5.7,1.083-5.879.455,4.345-2.477,5.227-2.729S2907.349,901.984,2907.529,902.612Z" transform="translate(-2889.37 -891.12)" fill="#fff"/>
        <path id="Leaves-base-36" data-name="Leaves-base" d="M2900.916,923.545c.129.731-.6,1.471-1.626,1.652s-6.571.547-6.7-.184,5.206-2.283,6.233-2.464S2900.787,922.814,2900.916,923.545Z" transform="translate(-2883.144 -907.644)" fill="#fff"/>
        <path id="Leaves-base-37" data-name="Leaves-base" d="M2894.348,946.351c-.014.828-.969,1.482-2.131,1.462s-7.305-.8-7.291-1.626,6.181-1.391,7.343-1.371S2894.362,945.524,2894.348,946.351Z" transform="translate(-2877.019 -925.479)" fill="#fff"/>
        <path id="Leaves-base-38" data-name="Leaves-base" d="M2883.4,877.667a.2.2,0,0,1,.372.15l-7.1,17.57a.2.2,0,1,1-.372-.15Z" transform="translate(-2870.114 -871.689)" fill="#fff"/>
      </g>
      <path id="Leaves-3" data-name="Leaves" d="M2294.125,844.108q-2.872-4.567-13.106-4.567c-10.235,0-8.408-5.523-19.022-5.523s-4.236-20.874-30.042-21.978-19.964,12.15-27.924,12.15-12.24-6.495-21.985-6.036-13.676,15.04-17.593,15.864-1.011-2.885-11.751-2.885q-10.74,0-15.162,8.409-6.161,4.567,12.792,4.567c4.652,0,17.464-1.483,31.714-1.9,8.042-.233,22.725,4.2,41.191,4.2,8.718,0,16.189-1.982,33.23-2.308Q2273.509,843.782,2294.125,844.108Z" transform="translate(-2136.029 -783.517)" fill="#ef9fec"/>
    </g>
  </g>
</svg>
